<svg width="126" height="38" viewBox="0 0 126 38" fill="none" xmlns="http://www.w3.org/2000/svg">
<path d="M3 16.5C1.61929 16.5 0.5 17.6193 0.5 19C0.5 20.3807 1.61929 21.5 3 21.5V16.5ZM124.768 20.7678C125.744 19.7915 125.744 18.2085 124.768 17.2322L108.858 1.32233C107.882 0.34602 106.299 0.34602 105.322 1.32233C104.346 2.29864 104.346 3.88155 105.322 4.85786L119.464 19L105.322 33.1421C104.346 34.1184 104.346 35.7014 105.322 36.6777C106.299 37.654 107.882 37.654 108.858 36.6777L124.768 20.7678ZM3 21.5H123V16.5H3V21.5Z" fill="#1D1A31"/>
</svg>
