<svg width="380" height="380" viewBox="0 0 380 380" fill="none" xmlns="http://www.w3.org/2000/svg">
<path d="M112.033 29.8289C135.727 23.9669 161.061 25.8582 183.89 34.383C206.839 42.9773 227.209 58.0016 241.349 78.204C255.033 97.7568 262.381 121.56 263.202 145.396C263.624 157.321 262.356 169.356 259.406 180.929C256.439 192.588 251.758 204.12 245.076 214.138C238.189 224.455 228.579 233.737 216.226 236.744C203.159 239.882 188.916 238.07 176.61 232.889C164.159 227.625 152.58 219.401 144.353 208.564C140.705 203.753 137.552 198.523 135.935 192.675C134.489 187.473 134.019 181.906 134.405 176.514C135.113 166.4 138.792 154.833 148.102 149.516C152.898 146.778 158.86 146.065 164.288 145.78C170.598 145.461 177.045 145.96 183.174 147.397C189.218 148.818 195.019 151.605 200.55 154.363C206.692 157.445 212.599 160.935 218.285 164.811C229.62 172.572 240.001 181.77 249.022 192.169C257.835 202.319 265.782 213.698 271.358 225.982C276.752 237.806 279.625 250.575 280.443 263.531C282.289 292.358 273.797 320.514 262.467 346.672C259.533 353.441 256.409 360.1 253.175 366.727C252.523 368.082 250.619 368.454 249.398 367.746C248.034 366.955 247.737 365.306 248.388 363.951C260.778 338.505 272.239 311.621 274.685 283.102C275.728 270.904 275.208 258.538 272.496 246.6C269.703 234.359 264.415 223.238 257.616 212.749C243.42 190.813 223.39 172.585 200.318 160.486C195.024 157.704 189.46 154.894 183.687 153.278C178.182 151.753 172.408 151.196 166.72 151.266C161.762 151.342 155.881 151.749 151.536 153.978C147.704 155.927 145.113 159.269 143.205 163.2C139.07 171.84 138.725 182.934 141.505 192.088C143.085 197.336 146.256 202.255 149.739 206.522C153.822 211.521 158.635 215.917 163.9 219.581C174.311 226.839 186.344 231.829 199.091 232.581C205.222 232.96 211.587 232.545 217.449 230.618C222.73 228.869 227.453 225.704 231.496 221.888C239.886 213.952 245.697 203.396 249.846 192.679C253.922 182.144 256.451 170.969 257.329 159.669C259.1 137.209 254.785 114.234 244.474 94.1991C233.864 73.5733 216.967 57.0021 196.579 46.1714C176.264 35.3824 152.896 30.4599 129.992 32.4483C124.415 32.9357 118.898 33.8748 113.467 35.2173C110.001 36.0303 108.576 30.6798 112.033 29.8289Z" fill="#1D1A31"/>
<path d="M276.686 365.973C276.322 365.889 275.969 365.843 275.591 365.783C275.822 365.822 276.067 365.837 276.299 365.875C273.832 365.59 271.333 365.858 268.885 366.092C266.314 366.318 263.754 366.582 261.179 366.87C259.719 367.041 258.244 367.235 256.77 367.429C257.004 367.406 257.216 367.37 257.464 367.323C255.755 367.54 254.052 367.857 252.332 368.036C250.228 368.278 248.088 367.26 247.159 365.29C246.505 363.892 246.228 362.333 245.788 360.837C245.402 359.468 244.979 358.109 244.504 356.784C243.979 355.271 243.417 353.768 242.827 352.313C242.925 352.529 242.999 352.731 243.083 352.97C241.451 348.971 239.502 345.137 237.25 341.445C236.611 340.406 235.948 339.354 235.248 338.312C234.862 337.77 234.804 336.877 234.977 336.246C235.139 335.577 235.649 334.855 236.27 334.547C236.891 334.239 237.627 334.062 238.327 334.277C239.051 334.506 239.59 334.946 240.02 335.577C244.426 342.14 247.872 349.324 250.28 356.827C250.613 357.847 250.908 358.877 251.204 359.907C251.475 360.923 251.682 361.997 252.066 362.984C251.968 362.768 251.894 362.566 251.81 362.326C251.918 362.58 252.04 362.809 252.209 363.066C252.06 362.885 251.924 362.679 251.775 362.497C251.901 362.665 252.04 362.809 252.192 362.93C251.992 362.782 251.792 362.634 251.606 362.462C251.734 362.568 251.901 362.665 252.057 362.724C251.829 362.624 251.602 362.523 251.36 362.447C251.541 362.52 251.711 362.555 251.881 362.59C251.649 362.551 251.404 362.536 251.173 362.497C251.588 362.547 251.983 362.522 252.392 362.473C252.157 362.495 251.946 362.532 251.697 362.579C258.477 361.645 265.247 360.674 272.07 360.274C274.044 360.147 276.008 360.204 277.963 360.607C278.644 360.747 279.322 361.332 279.657 361.907C279.991 362.483 280.138 363.331 279.928 363.973C279.568 365.482 278.193 366.274 276.686 365.973Z" fill="#1D1A31"/>
</svg>
