<svg width="22" height="22" viewBox="0 0 22 22" fill="none" xmlns="http://www.w3.org/2000/svg">
<path d="M10.9998 13.3334L2.83317 21.5001C2.52761 21.8056 2.13873 21.9584 1.6665 21.9584C1.19428 21.9584 0.805392 21.8056 0.499837 21.5001C0.194281 21.1945 0.0415039 20.8056 0.0415039 20.3334C0.0415039 19.8612 0.194281 19.4723 0.499837 19.1667L8.6665 11.0001L0.499837 2.83341C0.194281 2.52786 0.0415039 2.13897 0.0415039 1.66675C0.0415039 1.19453 0.194281 0.805636 0.499837 0.500081C0.805392 0.194525 1.19428 0.041748 1.6665 0.041748C2.13873 0.041748 2.52761 0.194525 2.83317 0.500081L10.9998 8.66675L19.1665 0.500081C19.4721 0.194525 19.8609 0.041748 20.3332 0.041748C20.8054 0.041748 21.1943 0.194525 21.4998 0.500081C21.8054 0.805636 21.9582 1.19453 21.9582 1.66675C21.9582 2.13897 21.8054 2.52786 21.4998 2.83341L13.3332 11.0001L21.4998 19.1667C21.8054 19.4723 21.9582 19.8612 21.9582 20.3334C21.9582 20.8056 21.8054 21.1945 21.4998 21.5001C21.1943 21.8056 20.8054 21.9584 20.3332 21.9584C19.8609 21.9584 19.4721 21.8056 19.1665 21.5001L10.9998 13.3334Z" fill="#1D1A31"/>
</svg>
