<svg width="267" height="264" viewBox="0 0 267 264" fill="none" xmlns="http://www.w3.org/2000/svg">
<path d="M11.145 22.2896C17.3001 22.2896 22.2896 17.2999 22.2896 11.1448C22.2896 4.98971 17.3001 0 11.145 0C4.98987 0 0 4.98971 0 11.1448C0 17.2999 4.98987 22.2896 11.145 22.2896Z" fill="#B76FEF"/>
<path d="M59.8619 22.2896C66.017 22.2896 71.0068 17.2999 71.0068 11.1448C71.0068 4.98971 66.017 0 59.8619 0C53.7067 0 48.7173 4.98971 48.7173 11.1448C48.7173 17.2999 53.7067 22.2896 59.8619 22.2896Z" fill="#B76FEF"/>
<path d="M108.578 22.2896C114.733 22.2896 119.722 17.2999 119.722 11.1448C119.722 4.98971 114.733 0 108.578 0C102.422 0 97.4326 4.98971 97.4326 11.1448C97.4326 17.2999 102.422 22.2896 108.578 22.2896Z" fill="#B76FEF"/>
<path d="M157.378 22.2896C163.533 22.2896 168.523 17.2999 168.523 11.1448C168.523 4.98971 163.533 0 157.378 0C151.223 0 146.233 4.98971 146.233 11.1448C146.233 17.2999 151.223 22.2896 157.378 22.2896Z" fill="#B76FEF"/>
<path d="M206.096 22.2896C212.251 22.2896 217.24 17.2999 217.24 11.1448C217.24 4.98971 212.251 0 206.096 0C199.941 0 194.951 4.98971 194.951 11.1448C194.951 17.2999 199.941 22.2896 206.096 22.2896Z" fill="#B76FEF"/>
<path d="M254.895 22.2896C261.05 22.2896 266.04 17.2999 266.04 11.1448C266.04 4.98971 261.05 0 254.895 0C248.74 0 243.75 4.98971 243.75 11.1448C243.75 17.2999 248.74 22.2896 254.895 22.2896Z" fill="#B76FEF"/>
<path d="M11.145 62.4784C17.3001 62.4784 22.2896 57.4887 22.2896 51.3335C22.2896 45.1784 17.3001 40.1887 11.145 40.1887C4.98987 40.1887 0 45.1784 0 51.3335C0 57.4887 4.98987 62.4784 11.145 62.4784Z" fill="#B76FEF"/>
<path d="M59.8619 62.4784C66.017 62.4784 71.0068 57.4887 71.0068 51.3335C71.0068 45.1784 66.017 40.1887 59.8619 40.1887C53.7067 40.1887 48.7173 45.1784 48.7173 51.3335C48.7173 57.4887 53.7067 62.4784 59.8619 62.4784Z" fill="#B76FEF"/>
<path d="M108.578 62.4784C114.733 62.4784 119.722 57.4887 119.722 51.3335C119.722 45.1784 114.733 40.1887 108.578 40.1887C102.422 40.1887 97.4326 45.1784 97.4326 51.3335C97.4326 57.4887 102.422 62.4784 108.578 62.4784Z" fill="#B76FEF"/>
<path d="M157.378 62.4784C163.533 62.4784 168.523 57.4887 168.523 51.3335C168.523 45.1784 163.533 40.1887 157.378 40.1887C151.223 40.1887 146.233 45.1784 146.233 51.3335C146.233 57.4887 151.223 62.4784 157.378 62.4784Z" fill="#B76FEF"/>
<path d="M206.096 62.4784C212.251 62.4784 217.24 57.4887 217.24 51.3335C217.24 45.1784 212.251 40.1887 206.096 40.1887C199.941 40.1887 194.951 45.1784 194.951 51.3335C194.951 57.4887 199.941 62.4784 206.096 62.4784Z" fill="#B76FEF"/>
<path d="M254.895 62.4784C261.05 62.4784 266.04 57.4887 266.04 51.3335C266.04 45.1784 261.05 40.1887 254.895 40.1887C248.74 40.1887 243.75 45.1784 243.75 51.3335C243.75 57.4887 248.74 62.4784 254.895 62.4784Z" fill="#B76FEF"/>
<path d="M11.145 102.668C17.3001 102.668 22.2896 97.6779 22.2896 91.5227C22.2896 85.3676 17.3001 80.3779 11.145 80.3779C4.98987 80.3779 0 85.3676 0 91.5227C0 97.6779 4.98987 102.668 11.145 102.668Z" fill="#B76FEF"/>
<path d="M59.8619 102.668C66.017 102.668 71.0068 97.6779 71.0068 91.5227C71.0068 85.3676 66.017 80.3779 59.8619 80.3779C53.7067 80.3779 48.7173 85.3676 48.7173 91.5227C48.7173 97.6779 53.7067 102.668 59.8619 102.668Z" fill="#B76FEF"/>
<path d="M108.578 102.668C114.733 102.668 119.722 97.6779 119.722 91.5227C119.722 85.3676 114.733 80.3779 108.578 80.3779C102.422 80.3779 97.4326 85.3676 97.4326 91.5227C97.4326 97.6779 102.422 102.668 108.578 102.668Z" fill="#B76FEF"/>
<path d="M157.378 102.668C163.533 102.668 168.523 97.6779 168.523 91.5227C168.523 85.3676 163.533 80.3779 157.378 80.3779C151.223 80.3779 146.233 85.3676 146.233 91.5227C146.233 97.6779 151.223 102.668 157.378 102.668Z" fill="#B76FEF"/>
<path d="M206.096 102.668C212.251 102.668 217.24 97.6779 217.24 91.5227C217.24 85.3676 212.251 80.3779 206.096 80.3779C199.941 80.3779 194.951 85.3676 194.951 91.5227C194.951 97.6779 199.941 102.668 206.096 102.668Z" fill="#B76FEF"/>
<path d="M254.895 102.668C261.05 102.668 266.04 97.6779 266.04 91.5227C266.04 85.3676 261.05 80.3779 254.895 80.3779C248.74 80.3779 243.75 85.3676 243.75 91.5227C243.75 97.6779 248.74 102.668 254.895 102.668Z" fill="#B76FEF"/>
<path d="M11.145 142.856C17.3001 142.856 22.2896 137.867 22.2896 131.711C22.2896 125.556 17.3001 120.567 11.145 120.567C4.98987 120.567 0 125.556 0 131.711C0 137.867 4.98987 142.856 11.145 142.856Z" fill="#B76FEF"/>
<path d="M59.8619 142.856C66.017 142.856 71.0068 137.867 71.0068 131.711C71.0068 125.556 66.017 120.567 59.8619 120.567C53.7067 120.567 48.7173 125.556 48.7173 131.711C48.7173 137.867 53.7067 142.856 59.8619 142.856Z" fill="#B76FEF"/>
<path d="M108.578 142.856C114.733 142.856 119.722 137.867 119.722 131.711C119.722 125.556 114.733 120.567 108.578 120.567C102.422 120.567 97.4326 125.556 97.4326 131.711C97.4326 137.867 102.422 142.856 108.578 142.856Z" fill="#B76FEF"/>
<path d="M157.378 142.856C163.533 142.856 168.523 137.867 168.523 131.711C168.523 125.556 163.533 120.567 157.378 120.567C151.223 120.567 146.233 125.556 146.233 131.711C146.233 137.867 151.223 142.856 157.378 142.856Z" fill="#B76FEF"/>
<path d="M206.096 142.856C212.251 142.856 217.24 137.867 217.24 131.711C217.24 125.556 212.251 120.567 206.096 120.567C199.941 120.567 194.951 125.556 194.951 131.711C194.951 137.867 199.941 142.856 206.096 142.856Z" fill="#B76FEF"/>
<path d="M254.895 142.856C261.05 142.856 266.04 137.867 266.04 131.711C266.04 125.556 261.05 120.567 254.895 120.567C248.74 120.567 243.75 125.556 243.75 131.711C243.75 137.867 248.74 142.856 254.895 142.856Z" fill="#B76FEF"/>
<path d="M11.145 183.045C17.3001 183.045 22.2896 178.056 22.2896 171.9C22.2896 165.745 17.3001 160.756 11.145 160.756C4.98987 160.756 0 165.745 0 171.9C0 178.056 4.98987 183.045 11.145 183.045Z" fill="#B76FEF"/>
<path d="M59.8619 183.045C66.017 183.045 71.0068 178.056 71.0068 171.9C71.0068 165.745 66.017 160.756 59.8619 160.756C53.7067 160.756 48.7173 165.745 48.7173 171.9C48.7173 178.056 53.7067 183.045 59.8619 183.045Z" fill="#B76FEF"/>
<path d="M108.578 183.045C114.733 183.045 119.722 178.056 119.722 171.9C119.722 165.745 114.733 160.756 108.578 160.756C102.422 160.756 97.4326 165.745 97.4326 171.9C97.4326 178.056 102.422 183.045 108.578 183.045Z" fill="#B76FEF"/>
<path d="M157.378 183.045C163.533 183.045 168.523 178.056 168.523 171.9C168.523 165.745 163.533 160.756 157.378 160.756C151.223 160.756 146.233 165.745 146.233 171.9C146.233 178.056 151.223 183.045 157.378 183.045Z" fill="#B76FEF"/>
<path d="M206.096 183.045C212.251 183.045 217.24 178.056 217.24 171.9C217.24 165.745 212.251 160.756 206.096 160.756C199.941 160.756 194.951 165.745 194.951 171.9C194.951 178.056 199.941 183.045 206.096 183.045Z" fill="#B76FEF"/>
<path d="M254.895 183.045C261.05 183.045 266.04 178.056 266.04 171.9C266.04 165.745 261.05 160.756 254.895 160.756C248.74 160.756 243.75 165.745 243.75 171.9C243.75 178.056 248.74 183.045 254.895 183.045Z" fill="#B76FEF"/>
<path d="M11.145 223.234C17.3001 223.234 22.2896 218.244 22.2896 212.089C22.2896 205.934 17.3001 200.944 11.145 200.944C4.98987 200.944 0 205.934 0 212.089C0 218.244 4.98987 223.234 11.145 223.234Z" fill="#B76FEF"/>
<path d="M59.8619 223.234C66.017 223.234 71.0068 218.244 71.0068 212.089C71.0068 205.934 66.017 200.944 59.8619 200.944C53.7067 200.944 48.7173 205.934 48.7173 212.089C48.7173 218.244 53.7067 223.234 59.8619 223.234Z" fill="#B76FEF"/>
<path d="M108.578 223.234C114.733 223.234 119.722 218.244 119.722 212.089C119.722 205.934 114.733 200.944 108.578 200.944C102.422 200.944 97.4326 205.934 97.4326 212.089C97.4326 218.244 102.422 223.234 108.578 223.234Z" fill="#B76FEF"/>
<path d="M157.378 223.234C163.533 223.234 168.523 218.244 168.523 212.089C168.523 205.934 163.533 200.944 157.378 200.944C151.223 200.944 146.233 205.934 146.233 212.089C146.233 218.244 151.223 223.234 157.378 223.234Z" fill="#B76FEF"/>
<path d="M206.096 223.234C212.251 223.234 217.24 218.244 217.24 212.089C217.24 205.934 212.251 200.944 206.096 200.944C199.941 200.944 194.951 205.934 194.951 212.089C194.951 218.244 199.941 223.234 206.096 223.234Z" fill="#B76FEF"/>
<path d="M254.895 223.234C261.05 223.234 266.04 218.244 266.04 212.089C266.04 205.934 261.05 200.944 254.895 200.944C248.74 200.944 243.75 205.934 243.75 212.089C243.75 218.244 248.74 223.234 254.895 223.234Z" fill="#B76FEF"/>
<path d="M11.145 263.423C17.3001 263.423 22.2896 258.433 22.2896 252.278C22.2896 246.123 17.3001 241.133 11.145 241.133C4.98987 241.133 0 246.123 0 252.278C0 258.433 4.98987 263.423 11.145 263.423Z" fill="#B76FEF"/>
<path d="M59.8619 263.423C66.017 263.423 71.0068 258.433 71.0068 252.278C71.0068 246.123 66.017 241.133 59.8619 241.133C53.7067 241.133 48.7173 246.123 48.7173 252.278C48.7173 258.433 53.7067 263.423 59.8619 263.423Z" fill="#B76FEF"/>
<path d="M108.578 263.423C114.733 263.423 119.722 258.433 119.722 252.278C119.722 246.123 114.733 241.133 108.578 241.133C102.422 241.133 97.4326 246.123 97.4326 252.278C97.4326 258.433 102.422 263.423 108.578 263.423Z" fill="#B76FEF"/>
<path d="M157.378 263.423C163.533 263.423 168.523 258.433 168.523 252.278C168.523 246.123 163.533 241.133 157.378 241.133C151.223 241.133 146.233 246.123 146.233 252.278C146.233 258.433 151.223 263.423 157.378 263.423Z" fill="#B76FEF"/>
<path d="M206.096 263.423C212.251 263.423 217.24 258.433 217.24 252.278C217.24 246.123 212.251 241.133 206.096 241.133C199.941 241.133 194.951 246.123 194.951 252.278C194.951 258.433 199.941 263.423 206.096 263.423Z" fill="#B76FEF"/>
<path d="M254.895 263.423C261.05 263.423 266.04 258.433 266.04 252.278C266.04 246.123 261.05 241.133 254.895 241.133C248.74 241.133 243.75 246.123 243.75 252.278C243.75 258.433 248.74 263.423 254.895 263.423Z" fill="#B76FEF"/>
</svg>
