<svg width="80" height="100" viewBox="0 0 80 100" fill="none" xmlns="http://www.w3.org/2000/svg">
<g clip-path="url(#clip0_408_2818)">
<path fill-rule="evenodd" clip-rule="evenodd" d="M70.8439 36.8196L69.8834 36.1327H66.8703V43.1091C65.4274 42.6893 64.2941 42.9377 62.9335 42.9075C61.1061 42.8862 59.3042 42.8954 57.4888 42.8873C44.0624 42.808 30.018 42.8835 16.5531 42.9232V37.2413L15.4114 36.0933H12.6364C12.554 34.0632 14.7797 27.5345 16.1063 25.2589C17.5592 24.7921 18.0976 23.9938 19.0058 22.7272C23.7694 15.193 33.4934 9.2993 43.2419 10.0167C51.3025 9.94489 59.9433 14.6397 64.4175 21.5561C64.9643 22.3147 65.2224 22.7639 65.8266 23.3512C66.4866 23.9847 66.9181 24.5895 67.807 25.0241C69.5198 28.7809 71.0902 33.7052 70.8439 36.8196ZM61.259 58.031C60.0074 59.2232 53.2268 59.7193 51.4407 58.8069C50.1378 58.1219 49.6562 56.6934 48.8224 55.1835C46.4108 49.5126 46.1114 48.2368 52.1228 48.2681C53.812 48.256 55.491 48.2166 57.1886 48.2166C59.2924 48.2571 61.8842 48.1216 63.4242 48.9234C64.3966 51.4985 63.601 56.4539 61.259 58.031ZM36.2252 48.7035C35.9086 51.5665 33.6764 57.5651 30.7274 58.842C28.4104 59.5701 21.3249 59.6915 20.4789 57.0781C19.8554 55.7764 19.3812 51.8794 19.8096 50.4774C19.9424 49.542 21.3734 48.1815 24.7563 48.2533C26.9819 48.0563 36.3892 48.3215 36.2252 48.7035ZM79.2348 43.4644C78.0124 42.137 77.0833 41.3857 75.3667 40.746C75.9964 34.1765 73.9374 28.3115 71.5066 23.6221C71.9104 22.5918 71.8892 22.0571 70.9847 20.7295C68.4541 16.4165 63.5981 11.8366 59.1579 8.7886C43.8271 -1.70705 21.9676 3.96191 12.4569 19.5319C11.5661 20.8474 11.4919 21.4236 11.9168 22.451C9.30838 27.507 7.44801 33.0534 8.05776 40.292C6.42626 41.2254 3.71532 41.3158 3.42236 44.0665V56.0268C3.39489 56.906 3.94971 57.8376 4.73708 58.5574C5.04377 58.866 5.3505 59.1733 5.6572 59.4816C6.27062 60.0968 7.13947 60.6833 8.261 61.2374C8.36537 61.3423 8.46883 61.4473 8.5732 61.5512C10.9692 64.2789 13.8073 64.8921 16.5531 64.3885V60.7116C16.8332 61.0966 17.1793 61.3866 17.5034 61.7252C17.8202 62.0308 18.1187 62.4002 18.4986 62.6211C21.0878 64.0267 28.8635 64.7484 32.8873 64.3315C37.453 63.7928 38.8841 57.4094 40.9366 54.1478C41.2122 53.5604 41.6152 52.3022 42.06 52.1419C43.6825 55.4495 45.5711 60.0865 48.5549 62.8658C50.125 64.3599 51.3565 64.3766 54.2295 64.4556C58.9637 64.174 64.5302 64.2136 66.8703 61.8881V63.2084L68.0146 64.3591C70.9051 64.7144 73.2323 64.604 76.0331 61.3958C78.6663 60.1464 80 58.7352 80 57.1969V45.2358C80 44.5672 79.7438 43.9745 79.2348 43.4644Z" fill="#8FAB9D"/>
<path fill-rule="evenodd" clip-rule="evenodd" d="M69.6967 35.6662L68.7361 34.9796H65.7231V41.9556C64.2804 41.5358 63.1471 41.7773 61.7863 41.7541C59.9592 41.7231 58.1572 41.7422 56.3416 41.7339C42.9152 41.6548 28.8709 41.7301 15.4061 41.7697V36.0879L14.2644 34.9399H11.4894C11.407 32.9101 13.6327 26.3811 14.9593 24.1055C16.4123 23.6388 16.9506 22.8407 17.8588 21.5738C22.6223 14.0399 32.3462 8.14623 42.095 8.86331C50.1554 8.79155 58.7963 13.4866 63.2705 20.403C63.8171 21.1616 64.0733 21.6127 64.6794 22.1981C65.3376 22.8335 65.7709 23.4361 66.6598 23.8708C68.3729 27.6278 69.943 32.5518 69.6967 35.6662ZM60.1118 56.8776C58.8605 58.0697 52.0745 58.5764 50.2936 57.6537C48.9869 56.9763 48.5093 55.54 47.6752 54.0303C45.2637 48.3594 44.9648 47.1943 50.9756 47.1147C52.6648 47.0923 54.3441 47.0467 56.0414 47.0631C58.1457 47.0834 60.7372 46.9684 62.277 47.7702C63.2494 50.345 62.4538 55.3007 60.1118 56.8776ZM35.0784 47.5501C34.7615 50.4133 32.5295 56.4116 29.5806 57.6885C27.2633 58.4167 20.1779 58.5383 19.3319 55.9247C18.7084 54.623 18.2342 50.7262 18.6626 49.3242C18.7954 48.3889 20.2264 47.0281 23.6093 47.1001C25.835 46.9029 35.242 47.1681 35.0784 47.5501ZM78.0876 42.3112C76.8654 40.9836 75.9361 40.2323 74.2195 39.5926C74.8494 33.0231 72.7902 27.1581 70.3596 22.4687C70.7632 21.4387 70.7422 20.9037 69.8375 19.5761C67.3072 15.2634 62.4512 10.6833 58.0107 7.63526C42.6799 -2.86035 20.8206 2.80859 11.3099 18.3785C10.4191 19.694 10.345 20.2702 10.7698 21.2978C8.16141 26.3536 6.30103 31.9 6.91077 39.1388C5.27927 40.0723 2.56837 40.1624 2.27539 42.9131V54.8733C2.24793 55.7526 2.80273 56.6841 3.59012 57.4042C3.89682 57.7125 4.20352 58.0201 4.51024 58.3284C5.12363 58.9433 5.99248 59.5298 7.11404 60.0839C7.21841 60.1889 7.32184 60.2938 7.42623 60.3979C9.82218 63.1257 12.6604 63.7387 15.4061 63.2352V59.5584C15.6862 59.9431 16.0323 60.2331 16.3564 60.572C16.6732 60.8776 16.9685 61.2523 17.3516 61.4676C19.92 62.9112 27.7194 63.6235 31.7402 63.1781C36.3096 62.6717 37.737 56.2562 39.7898 52.9946C40.0653 52.4073 40.468 51.1487 40.9129 50.9885C42.5353 54.2963 44.4389 58.9174 47.408 61.7126C48.9858 63.1983 50.2093 63.2231 53.0823 63.3024C57.8165 63.0208 63.383 63.0602 65.7231 60.7349V62.0549L66.8677 63.2056C69.7581 63.5611 72.0854 63.4505 74.8859 60.2423C77.519 58.9932 78.853 57.5817 78.853 56.0434V44.0823C78.853 43.4141 78.5965 42.8211 78.0876 42.3112Z" fill="#E1B26E"/>
<path fill-rule="evenodd" clip-rule="evenodd" d="M68.5692 34.5129L67.609 33.826H64.5959V40.8023C63.153 40.3826 62.0197 40.6237 60.6591 40.6005C58.8317 40.5698 57.0298 40.5887 55.2144 40.5803C41.788 40.5013 27.7434 40.5768 14.2786 40.6162V34.9343L13.137 33.7864H10.362C10.2795 31.7565 12.5052 25.2278 13.8318 22.9519C15.2848 22.4852 15.8232 21.6872 16.7314 20.4205C21.4949 12.8863 31.219 6.99266 40.9675 7.70974C49.0279 7.63798 57.6689 12.333 62.1431 19.2494C62.6896 20.008 62.9461 20.4591 63.5522 21.0446C64.2101 21.6802 64.6434 22.2829 65.5326 22.7172C67.2454 26.4742 68.8155 31.3985 68.5692 34.5129ZM58.9846 55.724C57.733 56.9162 50.9471 57.4231 49.1663 56.5002C47.8594 55.823 47.3819 54.3864 46.5477 52.8767C44.1362 47.2059 43.8373 46.0407 49.8484 45.9611C51.5373 45.939 53.2166 45.8934 54.9139 45.9096C57.0182 45.9298 59.6098 45.8149 61.1498 46.6167C62.1222 49.1915 61.3264 54.1471 58.9846 55.724ZM33.9509 46.3968C33.634 49.2597 31.402 55.2583 28.4531 56.5352C26.1358 57.2634 19.0504 57.3848 18.2045 54.7714C17.581 53.4694 17.1068 49.5727 17.5352 48.1706C17.668 47.2353 19.099 45.8748 22.4819 45.9465C24.7076 45.7496 34.1148 46.0145 33.9509 46.3968ZM76.9601 41.1576C75.738 39.83 74.8086 39.079 73.092 38.439C73.722 31.8698 71.663 26.0048 69.2322 21.3151C69.636 20.2851 69.6148 19.7501 68.7103 18.4228C66.1797 14.1098 61.3237 9.52997 56.8833 6.4817C41.5527 -4.01392 19.6931 1.65503 10.1825 17.225C9.29167 18.5407 9.21751 19.117 9.64234 20.1443C7.03396 25.2 5.1736 30.7467 5.78334 37.9853C4.15184 38.9187 1.44092 39.0088 1.14795 41.7598V53.72C1.12048 54.599 1.6753 55.5308 2.46266 56.2506C2.76936 56.559 3.07608 56.8665 3.38278 57.1749C3.9962 57.79 4.86505 58.3762 5.98658 58.9304C6.09095 59.0356 6.19441 59.1405 6.29878 59.2444C8.69475 61.9722 11.5329 62.5851 14.2786 62.0817V58.4048C14.5588 58.7895 14.9049 59.0795 15.229 59.4184C15.5457 59.7241 15.841 60.0988 16.2242 60.3141C18.7926 61.7577 26.592 62.4702 30.6129 62.0245C35.1824 61.5184 36.6095 55.1027 38.6623 51.841C38.9378 51.2537 39.3405 49.9952 39.7857 49.8352C41.4078 53.1427 43.3114 57.7638 46.2805 60.559C47.8586 62.0447 49.0821 62.0698 51.9551 62.1489C56.6893 61.8672 62.2558 61.9069 64.5959 59.5813V60.9014L65.7402 62.0523C68.6307 62.4076 70.9579 62.297 73.7585 59.0887C76.3916 57.8396 77.7256 56.4284 77.7256 54.8901V42.9288C77.7256 42.2605 77.4694 41.6675 76.9601 41.1576Z" fill="#D63F37"/>
<path fill-rule="evenodd" clip-rule="evenodd" d="M67.4225 33.3797L66.462 32.6928H63.4489V39.6691C62.006 39.2493 60.8727 39.4978 59.5121 39.4676C57.6847 39.4463 55.883 39.4554 54.0674 39.4473C40.641 39.368 26.5966 39.4436 13.1317 39.4832V33.8013L11.99 32.6534H9.21499C9.13259 30.6233 11.3583 24.0945 12.6849 21.8189C14.1379 21.3522 14.6762 20.5539 15.5844 19.2873C20.348 11.753 30.072 5.85962 39.8205 6.57671C47.8812 6.50494 56.5219 11.2 60.9961 18.1161C61.5429 18.8748 61.801 19.324 62.4052 19.9115C63.0652 20.5447 63.4967 21.1496 64.3856 21.5842C66.0984 25.3409 67.6688 30.2653 67.4225 33.3797ZM57.8376 54.5911C56.586 55.7833 49.8054 56.2794 48.0193 55.367C46.7164 54.6823 46.2348 53.2535 45.401 51.7435C42.9894 46.0727 42.69 44.7969 48.7014 44.8282C50.3906 44.816 52.0696 44.7766 53.7672 44.7766C55.871 44.8171 58.463 44.6817 60.0028 45.4835C60.9752 48.0586 60.1796 53.0139 57.8376 54.5911ZM32.8038 45.2636C32.4872 48.1265 30.255 54.1252 27.306 55.4021C24.9889 56.1302 17.9035 56.2519 17.0575 53.6382C16.434 52.3365 15.9598 48.4395 16.3883 47.0374C16.521 46.1021 17.952 44.7416 21.3349 44.8133C23.5606 44.6164 32.9678 44.8816 32.8038 45.2636ZM75.8134 40.0244C74.591 38.6971 73.6619 37.9457 71.9453 37.3061C72.575 30.7366 70.516 24.8715 68.0852 20.1821C68.489 19.1518 68.4681 18.6171 67.5634 17.2895C65.0327 12.9765 60.1767 8.39666 55.7365 5.34866C40.4057 -5.14699 18.5462 0.521969 9.03555 16.092C8.14473 17.4074 8.07057 17.9837 8.49537 19.011C5.88701 24.067 4.02662 29.6135 4.63636 36.852C3.00486 37.7855 0.293952 37.8759 0.000975839 40.6266V52.5869C-0.0264833 53.4661 0.528328 54.3976 1.3157 55.1177C1.62241 55.4261 1.92911 55.7333 2.23582 56.042C2.84922 56.6568 3.71807 57.2433 4.83963 57.7975C4.944 57.9024 5.04743 58.0073 5.15183 58.1112C7.54778 60.839 10.386 61.4522 13.1317 60.9485V57.2716C13.4118 57.6566 13.7579 57.9466 14.082 58.2852C14.3988 58.5909 14.6973 58.9602 15.0772 59.1812C17.6664 60.5867 25.4421 61.3087 29.4659 60.8916C34.0316 60.3528 35.4627 53.9695 37.5153 50.7078C37.7908 50.1205 38.1938 48.8622 38.6386 48.702C40.2611 52.0095 42.1497 56.6466 45.1335 59.4259C46.7036 60.9199 47.9351 60.9367 50.8081 61.0157C55.5423 60.734 61.1088 60.7737 63.4489 58.4482V59.7685L64.5935 60.9191C67.4837 61.2744 69.8109 61.1641 72.6118 57.9558C75.2449 56.7065 76.5786 55.2952 76.5786 53.7569V41.7958C76.5786 41.1273 76.3224 40.5346 75.8134 40.0244Z" fill="#343B5E"/>
<path fill-rule="evenodd" clip-rule="evenodd" d="M60.3162 53.0707C59.984 53.8265 58.9794 54.9389 58.3708 55.3564C55.9068 57.0429 49.5584 57.0888 47.6526 56.2088C44.3634 54.6892 41.7191 47.4497 41.7406 45.3861C41.7658 42.8235 45.3253 42.7808 47.5767 42.7655C50.2561 42.746 53.0977 42.6534 55.7833 42.7757C58.4711 42.8969 60.4367 43.5264 61.1039 45.7376C61.6892 47.6839 61.0483 51.3964 60.3162 53.0707ZM32.8208 48.8643C32.1048 50.8566 31.3968 52.7806 29.9417 54.4457C29.3958 55.0733 28.6932 55.8512 27.6511 56.2639C25.6155 57.0693 19.3459 57.0736 16.9185 55.1964C16.0618 54.5345 15.6557 54.0476 15.1058 52.9007C14.4061 51.4401 13.8785 47.2855 14.3858 45.6266C15.0522 43.4459 17.3358 42.8124 19.9161 42.7574C22.4367 42.7023 29.5367 42.5179 31.8799 43.2197C34.7206 44.0692 33.6775 46.485 32.8208 48.8643ZM63.8564 41.0982C63.4594 40.0695 61.102 40.4066 59.3501 40.3842C57.5951 40.3618 55.8351 40.374 54.08 40.3648C50.6582 40.3475 47.2119 40.3629 43.774 40.3262C36.8583 40.2517 29.9092 40.428 23.02 40.3597L12.6126 40.4026C10.9467 40.5319 11.3954 43.6516 11.6171 44.284C11.8521 44.9502 11.9179 48.0464 12.0475 49.1412C12.2784 51.0785 12.8091 56.3025 14.4142 57.2529C16.6654 58.586 25.4747 59.25 28.209 58.8468C29.8942 58.5982 30.7256 57.8923 31.4658 56.8005C32.5554 55.1904 34.5827 51.1427 35.5743 49.1577C35.7171 48.8705 35.7949 48.5914 35.9409 48.2492C36.1717 47.7082 36.6011 46.9884 37.0587 46.76C38.7015 45.9462 39.2613 47.8834 39.7637 48.951C40.8036 51.1632 42.1152 53.7501 43.379 55.7931C44.095 56.9522 44.5982 57.9169 45.8642 58.4832C48.3362 59.5871 57.4543 58.5401 59.9161 57.7436C61.5132 57.2264 61.894 56.6782 62.3596 55.0101C63.03 52.6094 63.6062 48.3817 63.6672 45.8606C63.7037 44.3523 64.4398 42.6108 63.8564 41.0982Z" fill="#FAE7C6"/>
<path fill-rule="evenodd" clip-rule="evenodd" d="M69.9165 30.7778L69.9105 37.2779C69.9105 37.2887 69.9114 37.2987 69.9124 37.3084C70.3986 37.825 72.194 38.2383 73.3677 39.0265C74.042 39.4201 74.5459 39.9316 74.5459 40.6572V52.6173C74.5459 53.9089 72.9791 55.1225 70.9106 56.0731C68.9038 58.6852 66.3944 59.2048 64.3798 58.9615V33.616H66.1854L68.3505 35.1625C68.3744 30.5332 68.3604 29.377 66.4279 24.149C65.5336 21.7282 64.9556 20.5229 64.5088 19.8912C64.3886 19.8677 64.2003 19.8796 63.7634 19.6686C63.032 19.3133 62.7113 18.9497 62.388 18.456C61.8645 17.8402 60.6997 15.82 58.4851 13.4636C54.5539 9.44312 49.1087 6.06169 43.3287 4.92789C41.9012 4.68484 40.406 4.56884 38.711 4.52028C34.8683 4.53728 32.0898 4.74419 29.1969 5.67405C28.5489 5.88824 27.9071 6.12806 27.2749 6.39296C26.1488 6.86962 24.9705 7.46552 23.6768 8.2087C23.3476 8.39807 23.027 8.59041 22.7156 8.78598C21.4138 9.61549 20.1824 10.5343 19.0385 11.5149C15.2276 14.8437 13.5423 18.0902 12.9704 18.6076L12.9469 18.6284C12.6619 19.0231 12.3373 19.3341 11.7092 19.6384C11.3268 19.8229 11.1344 19.838 11.012 19.8547C10.5587 20.4663 9.97177 21.6697 9.0441 24.1787C7.12111 29.3802 7.09865 30.5507 7.1221 35.1228L9.28667 33.5763H11.0931V58.9914C9.0557 59.2371 6.51275 58.7019 4.49536 56.0124C2.45927 55.0669 0.925781 53.8652 0.925781 52.5876V40.6283C0.925781 39.6262 1.88526 39.0335 2.92956 38.5944C3.97182 38.0948 5.13728 37.7557 5.53964 37.3599C5.55327 37.3235 5.56236 37.2868 5.56236 37.2483L5.5563 30.7482C5.5563 27.0379 9.40683 19.2578 9.40785 19.2551C9.53909 17.8672 8.52739 18.585 9.79531 16.6249L10.1159 16.2C10.6394 15.142 11.6522 13.8593 12.8699 12.5537L13.0731 12.2842C15.7905 9.06627 20.4546 5.58691 24.453 3.78951L24.5565 3.74419C27.1418 2.57047 29.8849 1.75849 32.701 1.3204C40.6151 0.0514526 48.7046 1.75067 55.244 6.12023C55.6465 6.38972 56.1158 6.72988 56.6294 7.12346C58.8246 8.70155 60.8674 10.5135 62.3477 12.2535C63.7417 13.7175 64.9035 15.1717 65.4319 16.3306L65.6774 16.6549C66.9447 18.6147 65.9339 17.8968 66.0649 19.2847C66.0649 19.2877 69.9165 27.0676 69.9165 30.7778Z" fill="#FAE7C6"/>
<path d="M69.9746 82.9501C69.7465 83.5138 69.5262 83.9372 69.3411 84.2384C69.3872 83.7546 69.5211 83.179 69.7183 82.6317L69.7213 82.6236C69.9856 81.865 70.3121 81.2754 70.5919 80.889C70.4889 81.4756 70.2659 82.2299 69.9746 82.9501ZM65.1344 80.4513C64.9605 80.9915 64.8041 81.4972 64.6689 81.9473C64.3335 82.6635 64.0561 83.2167 63.828 83.6426C64.1057 82.5375 64.6085 81.267 65.1344 80.4513ZM50.7989 83.0821C52.665 82.5337 54.3126 81.7169 55.6625 80.6939C54.7315 82.3643 54.1627 84.3307 54.1627 85.9231C54.1627 86.8733 54.3644 87.6726 54.7451 88.2905C52.8743 87.6191 50.9503 86.6385 49.777 86.0294C50.1757 85.126 50.4888 84.1685 50.7989 83.0821ZM55.5082 71.4304C55.6826 71.4304 56.0078 71.9088 56.0078 72.8231C56.0078 74.4978 54.9456 76.6998 52.0594 77.9109C53.4967 72.6374 55.0116 71.4304 55.5082 71.4304ZM59.4053 82.1028C59.4917 81.9044 59.5757 81.7242 59.6564 81.5606C59.5741 81.7506 59.4826 81.9498 59.3825 82.1557C59.39 82.1381 59.3978 82.1203 59.4053 82.1028ZM44.6221 79.3881C43.7123 79.3881 43.0125 79.1733 42.6522 78.783C42.4542 78.5691 42.3673 78.3086 42.3866 77.9878C42.4212 77.7276 42.5258 77.1736 42.6141 76.9783L42.6849 76.8218C43.3661 76.8682 43.9366 76.9151 44.4125 76.9605L44.5579 76.9775V76.978L45.434 77.0797L45.4348 77.0795L45.8962 77.1329C46.4905 77.2184 46.7945 77.2899 46.9351 77.3296C46.7516 77.9055 46.5643 78.5189 46.3722 79.1727C45.7387 79.3157 45.1517 79.3881 44.6221 79.3881ZM12.7883 89.986C12.5608 90.1107 12.3603 90.1738 12.1921 90.1738C11.7765 90.1738 11.4217 89.8824 11.3254 89.6722L10.7777 88.4754C11.065 88.8926 11.4229 89.1281 11.7515 89.2604C12.0374 89.3751 12.3184 89.4285 12.6355 89.4285C12.9263 89.4285 13.2121 89.3734 13.4925 89.2639C13.2727 89.5772 13.0378 89.8271 12.7883 89.986ZM8.81209 81.0987C8.92961 81.1097 9.04844 81.1154 9.16784 81.1154C9.81286 81.1154 10.7597 80.9589 11.6073 80.2138L11.6135 80.2084C11.6233 80.1995 11.6331 80.1893 11.643 80.1801C11.3553 80.8982 11.0719 81.7074 10.8346 82.5408C10.5415 82.126 10.147 81.7792 9.66232 81.5153C9.39777 81.3642 9.11262 81.2247 8.81209 81.0987ZM8.79181 77.0978C8.80584 77.033 9.01807 76.8911 9.46477 76.7983C9.25981 77.3269 9.00396 77.5827 8.83863 77.6664C8.76782 77.4718 8.75205 77.2813 8.79181 77.0978ZM4.38163 78.8354L4.38147 78.834C4.32319 78.3788 4.47814 77.7665 4.8067 77.0768C4.85562 77.749 5.07906 78.4322 5.4656 79.0262C5.89682 79.6892 6.51845 80.2378 7.23809 80.5959C4.70311 79.9561 4.39974 78.9088 4.38163 78.8354ZM10.1543 71.901C10.1686 71.9728 10.1821 72.0826 10.1821 72.2426C10.1821 72.3416 10.1769 72.4482 10.1667 72.5618C9.43877 72.6968 8.70099 72.8654 8.01341 73.104C8.89661 72.374 9.6778 71.9628 10.1543 71.901ZM32.6305 82.959C32.6413 83.0305 32.6525 83.0977 32.663 83.1609L32.6689 83.1954L32.6778 83.2297C32.8583 83.9254 33.3437 84.4837 33.8924 84.8175C33.3418 85.3704 32.9689 85.5566 32.8001 85.5709C32.6343 85.484 32.4645 85.0809 32.4645 84.3647C32.4645 83.941 32.5238 83.4539 32.6305 82.959ZM71.7657 77.1545L71.7169 77.1483H71.4467C71.285 77.1483 71.1291 77.1631 70.9788 77.1915C71.6136 76.128 72.2409 75.401 72.7134 75.2539L73.034 75.1541L73.1856 74.8526C73.2452 74.7342 73.3453 74.491 73.3453 74.1961C73.3453 72.8689 71.6311 71.6192 70.3027 71.6192C69.8587 71.6192 69.4983 71.7318 69.2016 71.963C68.7286 72.3033 67.9663 73.0967 66.7721 75.9428C66.4399 76.7346 66.1241 77.5665 65.8336 78.3826C65.4311 77.7438 64.6109 77.2964 63.7357 77.2964C63.128 77.2964 62.5517 77.511 62.0521 77.9141C61.5587 77.4837 60.9067 77.2203 60.1941 77.1866L60.1756 77.1858H60.046C59.5102 77.1858 58.9629 77.3445 58.4247 77.6467C58.5803 77.3798 58.7217 77.1073 58.8472 76.8285C59.4582 75.4854 59.7678 74.1505 59.7678 72.8606C59.7678 70.5863 58.8054 68.8479 57.1269 68.0901C56.5449 67.8213 55.8763 67.6851 55.1393 67.6851C53.8394 67.6851 51.3468 68.2026 49.2602 71.667C48.7531 72.5049 48.2404 73.6259 47.7003 75.0882C47.4111 74.4697 46.9611 73.747 46.2703 73.1032L46.2601 73.0937C45.1278 72.0745 43.4026 71.5299 42.1955 71.442C41 71.3548 39.1235 71.3105 36.6181 71.3105C30.417 71.3105 21.4564 71.5909 16.6427 71.9358C16.1886 71.9682 15.7209 71.9949 15.2686 72.0208C14.8336 72.0456 14.3893 72.071 13.9442 72.1023C13.7331 70.5706 13.0721 69.4815 12.0078 68.9272C11.3418 68.5707 10.5974 68.3899 9.79489 68.3899C8.07826 68.3899 6.05018 69.207 4.23068 70.6313C2.45848 72.0189 1.10708 73.7918 0.523076 75.4957L0.515929 75.5175C0.295982 76.2248 0.18449 76.9292 0.18449 77.6105C0.18449 77.9862 0.214412 78.3586 0.273061 78.7153C0.39256 79.4566 0.633218 80.1534 0.987847 80.7845C2.22223 82.9895 4.48686 83.553 5.83991 83.8895L5.85113 83.8925H5.85123L5.91131 83.9073C6.26686 83.9958 6.7292 84.111 6.96179 84.2147C6.90368 84.3337 6.78831 84.5223 6.57563 84.7719C6.06687 85.3645 5.01563 85.7946 4.07601 85.7946C4.00874 85.7946 3.94135 85.7922 3.87261 85.7871C3.43949 85.7563 2.92995 85.6039 2.77895 85.2657L2.76642 85.2328C2.74066 85.1651 2.72762 85.0852 2.72762 84.9951C2.72762 84.9111 2.72762 84.8318 2.73514 84.777L2.73691 84.7635C2.73806 84.7554 2.74015 84.7473 2.74208 84.7395L3.18041 82.9396L1.58052 83.8584C0.590844 84.4268 0 85.6009 0 86.9995C0 88.8443 1.09664 90.8687 3.5467 91.2368C3.82976 91.2837 4.05712 91.2837 4.29768 91.2837C6.60399 91.2837 8.75492 89.8719 10.0804 88.093L9.82258 89.8913C9.78201 90.1744 9.74004 90.4669 9.74004 90.7473C9.74004 92.8378 11.352 94.4758 13.4098 94.4758C14.0428 94.4758 14.6179 94.349 15.1192 94.0994C16.9892 93.2156 17.877 91.1531 18.4462 88.7563C18.8102 89.3516 19.5984 89.7256 20.6046 89.7256C21.6673 89.7256 22.4088 89.2477 22.4972 88.5075C22.5381 88.199 22.6967 87.5854 22.9494 86.7988C22.9714 88.5992 23.9949 89.3216 24.8562 89.6109C25.1483 89.7083 25.4857 89.7623 25.8065 89.7623C26.8542 89.7623 27.8129 89.167 28.668 87.9904C29.4399 89.0761 30.6293 89.7256 31.9678 89.7256C33.5057 89.7256 34.9873 88.8896 36.1399 87.3711C37.1061 86.0972 37.8721 84.3917 38.4162 82.3025L38.4422 82.2032V82.0639C38.4422 81.4335 37.8536 80.859 37.207 80.859C37.0983 80.859 36.9926 80.8763 36.8933 80.909C37.1227 80.5468 37.3731 80.2305 37.6279 80.0136C37.9582 79.7569 38.1468 79.3829 38.1468 78.9838C38.1468 77.889 36.6556 76.7772 35.584 76.7772H35.4705L35.4308 76.7813C34.9854 76.8263 34.6307 77.121 34.3605 77.443C33.9471 77.247 33.5414 77.1483 33.1484 77.1483C32.9659 77.1483 32.7518 77.1788 32.4942 77.2416C31.4361 77.4654 30.3594 78.3157 29.4603 79.6382C29.4281 79.6854 29.3969 79.734 29.3653 79.7823C29.13 78.4363 27.8094 77.3339 26.3235 77.3339C25.6299 77.3339 25.0309 77.5657 24.5903 78.0051C24.5051 78.0871 24.4183 78.1797 24.3304 78.2814C23.8985 77.7063 23.0879 77.3339 22.3385 77.3339C21.7019 77.3339 21.1956 77.6084 20.9129 78.1065L20.8985 78.1319L20.886 78.1583C20.8293 78.2779 20.7726 78.4036 20.716 78.5318C20.3725 77.685 19.1171 77.1483 18.2436 77.1483C17.364 77.1483 17.0533 77.6669 16.9583 77.9004C15.8909 80.4623 15.1017 82.0734 14.5397 83.0837C14.8768 82.0469 15.3795 80.7891 15.9629 79.6369C16.0743 79.4129 16.0836 79.2399 16.0836 79.0953C16.0836 78.1009 14.9274 77.4079 13.8896 77.4079C13.632 77.4079 13.3951 77.4624 13.1909 77.5639C13.3142 77.2344 13.4284 76.8884 13.5297 76.5295C18.029 76.4601 22.186 76.4251 25.8884 76.4251C32.4403 76.4251 36.965 76.5349 40.0754 76.6763C39.8978 76.8266 39.7301 76.9942 39.575 77.1788C38.9255 77.9506 38.5633 78.9253 38.5818 79.8527C38.6118 81.3709 39.3327 83.9181 43.8225 83.9181C44.2234 83.9181 44.651 83.8981 45.1023 83.8582C45.0551 83.9764 45.0071 84.0892 44.958 84.1966C44.0796 84.0101 43.3055 83.978 42.8773 83.978C39.9506 83.978 38.3711 86.1274 38.3711 88.1494C38.3711 88.3237 38.3711 88.5596 38.4235 88.7919C38.7449 90.5943 40.5355 91.8029 42.8891 91.8029C44.6046 91.8029 46.1989 91.1658 47.2893 90.0702C51.5006 92.6284 54.8305 93.9251 57.1929 93.9251C59.4552 93.9251 60.9459 92.7075 61.3902 90.4966C61.4452 90.2235 61.4543 89.9113 61.4208 89.585C61.5112 89.6079 61.6032 89.6279 61.6988 89.6425L61.7575 89.6514H62.0755C62.6249 89.6514 63.146 89.4711 63.6335 89.1133C64.0367 89.5545 64.6667 89.7995 65.2844 89.7995C66.0903 89.7995 66.7525 89.3969 67.0138 88.7485C67.042 88.6805 67.0694 88.6054 67.0967 88.5234C67.4034 88.8321 67.7978 89.0936 68.2944 89.2679C68.5568 89.3702 68.8705 89.4285 69.1584 89.4285C70.5361 89.4285 71.9023 88.3623 73.005 86.4258C73.9573 84.7541 74.5258 82.7488 74.5258 81.0622C74.5258 78.7992 73.5199 77.375 71.7657 77.1545Z" fill="#343B5E"/>
<path d="M9.89298 88.9843C9.47151 89.2669 8.92615 89.4749 8.37851 89.5588L8.65129 88.4395L8.63913 88.4465L8.64283 88.4314C9.06084 88.6644 9.48584 88.8424 9.89298 88.9843ZM8.6427 88.4311L8.63076 88.4381L8.63368 88.426C8.63669 88.4279 8.63969 88.4295 8.6427 88.4311ZM8.63113 88.4246L8.62239 88.4298L8.62453 88.4209C8.62673 88.4222 8.62891 88.4233 8.63113 88.4246ZM8.61954 88.4182L8.61399 88.4211L8.61535 88.4157C8.61675 88.4165 8.61814 88.4174 8.61954 88.4182ZM8.60797 88.4114L8.60561 88.4128L8.6062 88.4103C8.60677 88.4109 8.60738 88.4112 8.60797 88.4114ZM33.2236 82.9636C32.8742 82.6208 32.5417 82.261 32.1821 81.929C33.0172 81.9301 33.818 81.9334 34.586 81.9379C34.1864 82.2724 33.8003 82.6891 33.4391 83.1805C33.3671 83.1082 33.2952 83.0359 33.2236 82.9636ZM42.4882 82.6923C42.2749 82.4779 42.0616 82.2635 41.8485 82.0491C42.1397 82.0569 42.4222 82.065 42.6976 82.0731C42.6106 82.2756 42.5408 82.483 42.4882 82.6923ZM20.293 82.7797C20.0426 82.5281 19.7921 82.2764 19.5419 82.0248C19.9037 82.0194 20.2639 82.0143 20.621 82.0091C20.5085 82.2767 20.3992 82.5334 20.293 82.7797ZM28.132 82.0768C28.0855 82.0307 28.0394 81.9841 27.9932 81.9374C28.0823 81.9371 28.1709 81.9366 28.2594 81.936C28.2173 81.9808 28.1749 82.0277 28.132 82.0768ZM24.5555 82.2279C24.4684 82.1405 24.3815 82.0531 24.2946 81.9657C24.4223 81.9644 24.5506 81.963 24.6776 81.9619C24.6367 82.048 24.5962 82.137 24.5555 82.2279ZM9.90342 83.6193C10.1204 83.8369 10.337 84.0549 10.5537 84.2728C10.2894 84.1921 10.0542 84.1069 9.84478 84.0198C9.85254 83.8941 9.87221 83.7601 9.90342 83.6193ZM78.992 83.4912C78.3791 82.8827 77.7807 82.2589 77.16 81.6588C77.673 81.0128 77.9602 80.7952 78.5165 80.6582C79.5705 79.0688 77.6924 77.8516 76.7137 76.7882C72.919 72.8966 71.167 78.0755 69.6476 82.1421C68.7701 81.0155 66.9894 80.7275 65.8475 81.7235C65.5473 81.4614 65.1874 81.2618 64.7913 81.1377C65.7877 77.8915 65.2389 75.4531 62.7844 73.3963C59.0471 69.0293 53.4714 72.6649 51.6448 78.4984C51.341 78.1933 51.0372 77.888 50.7335 77.5827C49.6061 76.204 47.4985 75.3328 45.988 75.2549C38.1043 74.8773 25.9693 75.3771 18.8757 75.8439C18.5207 75.1562 17.94 74.7192 17.4288 74.1758C16.901 73.6782 16.455 73.0743 15.7953 72.7412C11.0071 70.4557 3.93979 76.4235 3.96995 81.4198C4.00414 83.9696 5.01068 85.2297 6.7555 86.8674C5.13211 87.6803 3.73448 88.5997 3.78562 90.804C3.73064 92.6504 4.85652 93.8422 6.1537 95.0443C7.89662 97.3924 11.4357 97.137 13.6342 95.4615C13.8712 96.618 14.737 97.3463 15.5178 98.1281C19.0111 102.22 23.1019 98.9947 23.9077 94.3021C24.679 95.4799 27.771 95.6544 27.9712 94.0043C27.9916 93.8509 28.0413 93.6213 28.1172 93.3325C28.4395 93.6561 28.7615 93.98 29.0838 94.304C30.6319 95.8669 32.7607 95.4586 34.107 93.5353C36.4389 96.4724 40.4273 95.2398 42.1635 92.0654C42.1343 93.4398 43.1041 94.3317 44.0146 95.2088C44.2073 95.4025 44.3999 95.5964 44.5929 95.79C46.4482 97.9952 50.8754 97.6289 52.7673 95.5662C58.4208 98.9483 66.2283 102.508 66.9014 95.0813C67.6699 95.2633 68.4441 95.1028 69.1133 94.6106C70.0429 95.6757 72.2385 95.4834 72.5782 94.0202C77.354 98.0974 82.134 86.7352 78.992 83.4912ZM43.893 87.8027C44.0913 86.9604 43.205 86.4563 42.7284 85.9069C42.7885 85.8333 42.8492 85.7643 42.9104 85.6998C43.1631 86.1572 43.6078 86.5483 43.9802 86.9289C44.3444 87.2948 44.7083 87.6606 45.0724 88.0266C44.4944 88.2143 43.9985 88.501 43.5885 88.8559C43.6966 88.5163 43.7983 88.1657 43.893 87.8027ZM50.1651 82.9814C49.3367 83.1621 48.6653 83.2385 47.9156 83.1729C47.9832 82.8123 48.0395 82.5666 48.1622 82.325C48.9202 82.3789 49.4687 82.4183 50.0355 82.4806V82.4811L50.3044 82.5124C50.2582 82.6664 50.2118 82.8226 50.1651 82.9814ZM56.2775 88.5819C56.9363 88.3885 57.5669 88.1609 58.1677 87.9036C57.8519 89.2855 57.8371 90.9979 58.5394 92.0943C57.513 91.7261 56.4712 91.2649 55.5457 90.8231C55.8141 90.1268 56.0467 89.3902 56.2775 88.5819Z" fill="#8FAB9D"/>
<path d="M8.64318 87.7094C8.2217 87.9924 7.67633 88.2004 7.12867 88.2843L7.40145 87.1648L7.3893 87.1718L7.393 87.1567C7.81102 87.3895 8.23603 87.5678 8.64318 87.7094ZM7.39287 87.1565L7.38092 87.1635L7.38385 87.1513C7.38686 87.153 7.38986 87.1548 7.39287 87.1565ZM7.3813 87.15L7.37255 87.1548L7.37467 87.1462C7.3769 87.1476 7.37907 87.1486 7.3813 87.15ZM7.36971 87.1432L7.36415 87.1465L7.36552 87.1411C7.36692 87.1419 7.36831 87.1424 7.36971 87.1432ZM7.35814 87.1368L7.35578 87.1381L7.35634 87.1357C7.35693 87.136 7.35755 87.1365 7.35814 87.1368ZM31.9742 81.6882C31.625 81.3451 31.2923 80.9856 30.9327 80.6535C31.7681 80.6546 32.5688 80.6575 33.3369 80.6624C32.9373 80.9969 32.5511 81.4134 32.1899 81.9051C32.118 81.8328 32.0461 81.7605 31.9742 81.6882ZM41.2393 81.4166C41.026 81.2022 40.8127 80.988 40.5993 80.7735C40.8908 80.7811 41.1731 80.7892 41.4487 80.7975C41.3617 81.0001 41.2919 81.2073 41.2393 81.4166ZM19.0434 81.5043C18.7931 81.2526 18.5426 81.0009 18.2923 80.7493C18.6541 80.7439 19.0143 80.7385 19.3715 80.7336C19.259 81.0012 19.1496 81.258 19.0434 81.5043ZM26.8827 80.8013C26.8363 80.7549 26.7901 80.7085 26.744 80.6619C26.833 80.6613 26.9216 80.6611 27.0102 80.6605C26.968 80.7053 26.9254 80.7522 26.8827 80.8013ZM23.3061 80.9521C23.219 80.865 23.132 80.7776 23.0452 80.6899C23.1729 80.6888 23.3012 80.6875 23.4282 80.6861C23.3873 80.7725 23.3468 80.8615 23.3061 80.9521ZM8.65362 82.344C8.87058 82.5614 9.0872 82.7796 9.30395 82.9976C9.03962 82.9166 8.80441 82.8317 8.59498 82.7445C8.60274 82.6188 8.62241 82.4848 8.65362 82.344ZM77.7438 82.2159C77.1311 81.6073 76.5327 80.9834 75.912 80.3832C76.4251 79.7372 76.7122 79.5195 77.2682 79.3825C78.3226 77.7929 76.4594 76.5612 75.4654 75.5119C71.727 71.5651 69.9188 76.7994 68.3994 80.8663C67.5219 79.7399 65.7411 79.4515 64.5993 80.448C64.2987 80.1858 63.9391 79.9862 63.543 79.8621C64.5392 76.6155 63.8133 74.3736 61.536 72.1197C57.4522 68.0773 52.2228 71.3881 50.3958 77.2224C50.0921 76.917 49.7733 76.6262 49.4848 76.3066C48.2917 74.9843 46.2498 74.0561 44.7389 73.9784C36.8553 73.6005 24.7199 74.1006 17.6262 74.5676C17.2711 73.8795 16.7064 73.4271 16.1792 72.8992C15.6665 72.3856 15.209 71.7903 14.5456 71.4644C9.78264 69.1258 2.67142 75.1475 2.72 80.1442C2.74479 82.6946 3.76075 83.9546 5.50562 85.5922C3.88218 86.4055 2.5429 87.3242 2.53567 89.5297C2.5296 91.3771 3.72257 92.4529 4.90381 93.7705C6.85506 95.9471 10.1859 95.8632 12.3845 94.1878C12.6215 95.3445 13.5183 96.0429 14.2681 96.8545C17.9178 100.807 21.8524 97.7215 22.6582 93.0282C23.4296 94.2059 26.5125 94.3796 26.7219 92.7304C26.7414 92.5767 26.7919 92.3474 26.8679 92.0585C27.1902 92.3822 27.5123 92.7061 27.8343 93.0298C29.3827 94.593 31.5115 94.1846 32.8579 92.2613C35.1899 95.1988 39.1784 93.9661 40.9146 90.7912C40.8854 92.1658 41.8646 93.0482 42.7657 93.9348C42.9603 94.1266 43.1594 94.3146 43.3438 94.5164C45.2893 96.642 49.6267 96.3555 51.5186 94.2925C57.172 97.6748 64.9801 101.236 65.6528 93.8075C66.4214 93.9896 67.1956 93.8288 67.8651 93.3365C68.7947 94.402 70.9904 94.2094 71.3298 92.7463C76.106 96.824 80.8862 85.46 77.7438 82.2159ZM42.6439 86.528C42.8425 85.6856 41.9559 85.1814 41.4795 84.6319C41.5394 84.5583 41.6003 84.489 41.6615 84.4248C41.9143 84.882 42.3573 85.2747 42.7314 85.654C43.0939 86.0214 43.4594 86.3858 43.8236 86.7518C43.2453 86.9393 42.7494 87.2263 42.3396 87.5813C42.4475 87.2417 42.5495 86.891 42.6439 86.528ZM48.9164 81.706C48.0877 81.8865 47.4166 81.9631 46.6668 81.8976C46.7344 81.5369 46.7908 81.2912 46.9134 81.0495C47.6715 81.1034 48.22 81.1428 48.7868 81.2051V81.2057L49.0557 81.237C49.0095 81.391 48.9631 81.5472 48.9164 81.706ZM55.029 87.307C55.6875 87.1138 56.3184 86.8862 56.9193 86.6286C56.6034 88.011 56.5886 89.7233 57.2909 90.8201C56.2645 90.4519 55.2227 89.9906 54.2969 89.5488C54.5653 88.8523 54.7979 88.1154 55.029 87.307Z" fill="#E1B26E"/>
<path d="M7.37558 86.4345C6.95413 86.7175 6.40875 86.9255 5.86109 87.0091L6.13388 85.8899L6.12172 85.8969L6.12542 85.8816C6.54344 86.1146 6.96846 86.2926 7.37558 86.4345ZM6.12529 85.8816L6.11335 85.8883L6.11627 85.8764C6.11928 85.8781 6.12228 85.8799 6.12529 85.8816ZM6.1137 85.8751L6.10498 85.8799L6.1071 85.8713C6.10932 85.8724 6.1115 85.8737 6.1137 85.8751ZM6.10213 85.8683L6.09658 85.8716L6.09794 85.8659C6.09934 85.8667 6.10074 85.8675 6.10213 85.8683ZM6.09056 85.8619L6.0882 85.8632L6.08877 85.8608C6.08936 85.8611 6.08997 85.8616 6.09056 85.8619ZM30.7066 80.4133C30.3575 80.0702 30.0248 79.7107 29.6652 79.3786C30.5005 79.3797 31.3013 79.3826 32.0693 79.3875C31.6698 79.722 31.2833 80.1385 30.9224 80.6299C30.8505 80.5579 30.7786 80.4856 30.7066 80.4133ZM39.9718 80.1417C39.7585 79.9273 39.5451 79.7131 39.3318 79.4984C39.623 79.5062 39.9055 79.5143 40.1811 79.5226C40.0942 79.7252 40.0244 79.9324 39.9718 80.1417ZM17.7759 80.2294C17.5255 79.9777 17.275 79.726 17.0247 79.4744C17.3865 79.469 17.7467 79.4636 18.1039 79.4587C17.9914 79.7263 17.882 79.9831 17.7759 80.2294ZM25.6151 79.5264C25.5687 79.48 25.5226 79.4336 25.4764 79.387C25.5654 79.3864 25.6541 79.3862 25.7426 79.3856C25.7004 79.4301 25.6579 79.4773 25.6151 79.5264ZM22.0385 79.6772C21.9514 79.5901 21.8645 79.5024 21.7776 79.415C21.9053 79.4137 22.0336 79.4126 22.1606 79.4112C22.1197 79.4973 22.0792 79.5866 22.0385 79.6772ZM7.38604 81.0688C7.603 81.2865 7.81962 81.5047 8.03637 81.7224C7.77204 81.6417 7.53683 81.5568 7.32741 81.4696C7.33516 81.3437 7.35483 81.2099 7.38604 81.0688ZM76.4762 80.941C75.8636 80.3324 75.2649 79.7085 74.6442 79.1083C75.1575 78.4623 75.4447 78.2446 76.0007 78.1073C77.0551 76.5177 75.1919 75.2863 74.1979 74.237C70.4595 70.2902 68.6513 75.5245 67.1319 79.5914C66.2541 78.4647 64.4736 78.1766 63.3317 79.1728C63.0312 78.9109 62.6716 78.711 62.2755 78.5869C63.2716 75.3406 62.5455 73.0984 60.2685 70.8447C56.1847 66.8024 50.9553 70.1132 49.1283 75.9475C48.8245 75.6421 48.5057 75.3513 48.2172 75.0314C47.0241 73.7094 44.9822 72.7812 43.4714 72.7035C35.5877 72.3256 23.4523 72.8257 16.3586 73.2924C16.0035 72.6045 15.4388 72.1519 14.9116 71.624C14.3989 71.1107 13.9414 70.5154 13.2781 70.1895C8.51506 67.8509 1.40384 73.8723 1.45242 78.8693C1.47722 81.4195 2.49317 82.6797 4.23804 84.3173C2.61459 85.1306 1.27533 86.0493 1.26809 88.2545C1.26203 90.1022 2.455 91.178 3.63623 92.4957C5.58748 94.6719 8.91831 94.5883 11.1169 92.9129C11.354 94.0696 12.2508 94.7677 13.0005 95.5796C16.6503 99.5316 20.5849 96.4466 21.3907 91.7531C22.162 92.931 25.2449 93.1047 25.4543 91.4555C25.4738 91.3018 25.5243 91.0725 25.6002 90.7836C25.9225 91.1073 26.2446 91.4312 26.5668 91.7549C28.1152 93.3181 30.244 92.9097 31.5903 90.9864C33.9223 93.9239 37.9109 92.6909 39.6471 89.5163C39.6179 90.8907 40.5971 91.7733 41.4979 92.6599C41.6928 92.8517 41.8916 93.0397 42.0762 93.2415C44.0215 95.3671 48.3592 95.0806 50.2511 93.0176C55.9045 96.3999 63.7122 99.9608 64.3853 92.5326C65.1538 92.7147 65.928 92.5539 66.5973 92.0616C67.5272 93.1271 69.7226 92.9345 70.0623 91.4712C74.8382 95.5491 79.6186 84.1851 76.4762 80.941ZM41.3764 85.2531C41.575 84.4107 40.6883 83.9062 40.212 83.357C40.2718 83.2834 40.3325 83.2141 40.3939 83.1499C40.6467 83.6071 41.0895 83.9998 41.4636 84.3788C41.8264 84.7465 42.1919 85.1109 42.5561 85.4769C41.9778 85.6644 41.4818 85.9514 41.0721 86.3064C41.1799 85.9668 41.2817 85.6161 41.3764 85.2531ZM47.6489 80.4309C46.8202 80.6116 46.149 80.6882 45.3993 80.6227C45.4669 80.2617 45.5232 80.0163 45.6459 79.7746C46.404 79.8285 46.9522 79.8676 47.5193 79.9302V79.9308L47.7881 79.9621C47.742 80.1161 47.6956 80.2723 47.6489 80.4309ZM53.7614 86.0321C54.42 85.8387 55.0509 85.6113 55.6517 85.3537C55.3359 86.7361 55.3211 88.4484 56.0234 89.5449C54.9969 89.1767 53.9552 88.7157 53.0294 88.2739C53.2977 87.5774 53.5304 86.8405 53.7614 86.0321Z" fill="#D63F37"/>
<path d="M6.10926 85.18C5.68783 85.4629 5.14247 85.6708 4.59482 85.7545L4.86757 84.6354L4.85544 84.6425L4.85914 84.6271C5.27715 84.8601 5.70216 85.0381 6.10926 85.18ZM4.85901 84.6271L4.84707 84.6338L4.84999 84.622C4.853 84.6236 4.856 84.6255 4.85901 84.6271ZM4.84742 84.6203L4.8387 84.6255L4.84082 84.6168C4.84304 84.6179 4.84522 84.6193 4.84742 84.6203ZM4.83585 84.6139L4.8303 84.6171L4.83167 84.6114C4.83306 84.6122 4.83446 84.6131 4.83585 84.6139ZM4.82426 84.6074L4.82193 84.6087L4.82249 84.6063C4.82308 84.6066 4.8237 84.6068 4.82426 84.6074ZM29.4398 79.1596C29.0907 78.8165 28.7579 78.457 28.3983 78.1247C29.2334 78.126 30.0344 78.129 30.8024 78.1336C30.4029 78.468 30.0165 78.8847 29.6555 79.3761C29.5836 79.3039 29.5117 79.2316 29.4398 79.1596ZM38.7047 78.888C38.4914 78.6736 38.278 78.4591 38.0647 78.2447C38.3559 78.2525 38.6384 78.2606 38.9138 78.269C38.8271 78.4715 38.7573 78.6787 38.7047 78.888ZM16.5093 78.9756C16.2589 78.724 16.0084 78.4724 15.7582 78.2204C16.12 78.2151 16.4801 78.2099 16.8373 78.2051C16.7248 78.4726 16.6155 78.7291 16.5093 78.9756ZM24.3484 78.2728C24.302 78.2264 24.2558 78.1797 24.2097 78.1333C24.2986 78.1328 24.3873 78.1323 24.4758 78.132C24.4336 78.1765 24.3911 78.2234 24.3484 78.2728ZM20.7718 78.4235C20.6847 78.3362 20.5978 78.2488 20.5109 78.1614C20.6386 78.16 20.7669 78.1587 20.8939 78.1576C20.853 78.2436 20.8125 78.3326 20.7718 78.4235ZM6.11973 79.815C6.33669 80.0326 6.5533 80.2505 6.77004 80.4685C6.50572 80.3878 6.27051 80.3029 6.0611 80.2155C6.06885 80.0898 6.08852 79.956 6.11973 79.815ZM75.2082 79.6868C74.5955 79.0784 73.9969 78.4546 73.3762 77.8545C73.8895 77.2088 74.1767 76.9911 74.7327 76.8538C75.787 75.2645 73.9086 74.0473 72.9299 72.9841C69.1352 69.0922 67.3835 74.2714 65.8641 78.3378C64.9863 77.2112 63.2058 76.9232 62.064 77.9192C61.7635 77.657 61.4039 77.4574 61.0075 77.3334C62.0039 74.0875 61.4554 71.6488 59.0009 69.592C55.2633 65.2251 49.6879 68.8608 47.861 74.6943C47.5572 74.389 47.2534 74.0837 46.9499 73.7784C45.8223 72.3996 43.7147 71.5285 42.2042 71.4505C34.3207 71.0729 22.1856 71.5727 15.092 72.0396C14.737 71.3518 14.1563 70.9149 13.6451 70.3714C13.1173 69.8738 12.6713 69.2699 12.0116 68.9371C7.22341 66.6516 0.156096 72.6194 0.186264 77.6158C0.220457 80.1656 1.22699 81.4257 2.97181 83.063C1.3484 83.8762 -0.0492102 84.7954 0.0019328 86.9997C-0.0530467 88.8464 1.07281 90.0379 2.37002 91.24C4.11293 93.5881 7.65196 93.3327 9.8505 91.6575C10.0876 92.814 10.9534 93.5423 11.7341 94.3239C15.2274 98.4153 19.3182 95.1907 20.124 90.4978C20.8954 91.6756 23.9873 91.8504 24.1875 90.2003C24.2079 90.0466 24.2575 89.8171 24.3335 89.5285C24.6557 89.8521 24.9778 90.176 25.3 90.4997C26.8484 92.0626 28.9771 91.6543 30.3234 89.7313C32.6554 92.6684 36.6438 91.4356 38.3797 88.2611C38.3505 89.6355 39.3206 90.5277 40.2308 91.4046C40.4235 91.5985 40.6164 91.7921 40.8091 91.9858C42.6644 94.1909 47.0919 93.8249 48.9837 91.7622C54.637 95.144 62.4445 98.7045 63.1176 91.2773C63.8861 91.459 64.6603 91.2986 65.3295 90.8063C66.2594 91.8714 68.4547 91.6791 68.7944 90.216C73.5702 94.2931 78.3505 82.9309 75.2082 79.6868ZM40.1092 83.9984C40.3076 83.1561 39.4212 82.652 38.9446 82.1029C39.0047 82.0293 39.0654 81.9599 39.1266 81.8958C39.3793 82.3529 39.824 82.744 40.1965 83.1245C40.5606 83.4905 40.9247 83.8565 41.2889 84.2225C40.7106 84.41 40.2147 84.6969 39.8049 85.0519C39.9128 84.7123 40.0145 84.3614 40.1092 83.9984ZM46.3816 79.1771C45.5529 79.3578 44.8815 79.4344 44.1318 79.3689C44.1997 79.008 44.256 78.7626 44.3786 78.5206C45.1367 78.5748 45.685 78.614 46.252 78.6765V78.6771L46.5206 78.7081C46.4744 78.8621 46.4283 79.0185 46.3816 79.1771ZM52.494 84.7776C53.1525 84.5842 53.7834 84.3568 54.3839 84.0993C54.0681 85.4812 54.0533 87.1936 54.7559 88.29C53.7294 87.9218 52.6877 87.4609 51.7619 87.0191C52.0303 86.3227 52.2629 85.5859 52.494 84.7776Z" fill="#343B5E"/>
<path d="M8.37943 78.3944C8.10446 78.122 7.90685 77.7809 8.01114 76.9206C8.21431 76.0007 9.78864 75.8977 10.4911 75.909C10.1491 78.255 8.88616 78.7183 8.37943 78.3944ZM10.5362 83.7392C10.1914 82.335 8.49485 81.7339 7.17193 81.3906C3.72055 80.5621 3.58916 78.9267 3.58916 78.9267C2.61542 76.3702 11.9041 66.8622 10.8609 73.2429C-1.04131 74.5573 10.5787 86.7537 12.9013 75.7658C32.4643 75.3961 40.5326 75.7642 45.3445 76.2582C45.3445 76.259 45.3437 76.2599 45.3437 76.2607C45.4843 76.2768 45.8462 76.3189 45.9914 76.3356C47.2186 76.5115 47.396 76.6498 47.396 76.6498C47.3912 76.6053 47.099 74.9603 45.7263 73.6814C42.8768 70.4609 19.6983 72.8006 13.2148 72.9533C12.5462 64.3941 0.502586 72.168 0.969351 77.6023C0.834651 80.777 3.52533 82.7314 6.02321 83.1047C6.96608 83.3102 7.68662 83.4558 7.77055 83.9269C7.89599 86.4992 1.51702 88.0404 1.966 84.5375C1.19083 84.9822 0.784668 85.9469 0.784668 86.9854C1.45168 94.238 11.8519 88.6825 10.5362 83.7392Z" fill="#FAE7C6"/>
<path d="M18.2462 77.9441C17.9881 77.9441 17.7665 78.018 17.6928 78.2035C15.8848 82.5414 14.2992 85.5083 13.5615 85.5083C12.6125 84.831 14.5944 80.9226 15.295 79.0938C15.3172 78.492 13.8262 77.8144 13.3398 78.4637C12.4548 79.9094 11.0157 83.7282 11.0157 86.2497C11.0157 87.3622 11.3109 88.2142 12.0487 88.511C14.3184 89.3679 15.9119 84.9402 16.3281 83.7282C15.9006 85.9348 13.7612 93.737 10.6103 89.9942C10.1529 91.9319 11.6194 93.7252 13.4135 93.665C19.1015 93.2679 17.4946 82.9172 19.9427 79.2046C20.3068 78.5195 18.9911 77.9687 18.2462 77.9441Z" fill="#FAE7C6"/>
<path d="M37.2306 81.6421C30.0667 93.3127 30.7929 79.6289 34.1672 79.3785C33.7932 80.2344 33.1787 81.8264 33.4652 83.015C33.7326 83.9202 34.6163 84.4764 35.2002 84.3137C34.6633 82.9964 35.993 80.4931 37.1568 79.3785C37.9364 78.671 36.3858 77.5779 35.6067 77.5606C35.1868 77.5326 34.8126 78.1742 34.6099 78.4883C31.783 76.5345 29.0356 80.6472 28.6237 84.0776C28.6168 84.09 28.6098 84.1024 28.6025 84.1145C28.1518 85.0487 27.2285 86.6299 27.079 85.4642C27.1861 83.1887 30.7961 78.6705 26.3406 78.117C24.5093 78.1818 23.6514 80.916 22.7599 82.6812C23.0691 81.2902 23.5151 80.3485 23.8675 79.1564C23.8674 78.5998 23.0181 78.117 22.3534 78.117C20.6558 78.1999 19.1997 86.5953 19.0306 87.8384C18.825 88.9696 21.431 89.3174 21.726 88.3954C21.473 88.3071 24.8356 78.5223 25.898 80.0463C25.9088 80.8545 23.6801 84.6067 23.7565 86.7257C23.6851 87.9698 24.5606 88.9661 25.8235 88.9518C27.0884 88.9267 28.0452 87.7397 28.7615 86.3352C29.8455 89.6617 33.5151 89.6776 35.5329 86.8743C36.6032 85.4642 37.2679 83.6464 37.6744 82.0873C37.6948 81.8817 37.4671 81.6456 37.2306 81.6421Z" fill="#FAE7C6"/>
<path d="M41.8594 88.661C41.453 88.661 41.1948 88.4754 41.1575 88.1786V88.1044C41.1575 87.6219 41.6747 87.2134 42.4867 87.2134C42.8923 87.2134 43.4095 87.3248 43.9259 87.548C43.2248 88.3267 42.4129 88.661 41.8594 88.661ZM55.5165 70.6267C56.2912 70.6267 56.8084 71.5544 56.8084 72.8156C56.8084 75.0054 55.2946 77.9703 50.939 79.1212C52.4899 72.5898 54.3355 70.6267 55.5165 70.6267ZM59.6455 87.6594C59.4456 88.7571 58.2774 90.0027 56.5078 89.6254C53.6462 89.0153 49.9655 87.0026 48.7367 86.3747C49.3269 85.2241 49.7215 84.0225 50.1644 82.427C54.4829 81.2764 57.0666 78.8643 58.1368 76.4898C58.7276 75.191 58.9858 73.9662 58.9858 72.8531C58.9858 70.9238 58.2111 69.4394 56.8084 68.808C56.3285 68.5857 55.7748 68.4742 55.1475 68.4742C53.4863 68.4742 51.5298 69.4394 49.9427 72.0736C48.9087 73.7808 47.9315 76.6376 47.0086 79.829C43.4602 80.7748 41.4716 79.6768 41.6009 77.9029C41.6023 77.8845 41.7196 77.031 41.8962 76.6406C41.2332 76.7569 40.6368 77.1441 40.1813 77.6854C39.6222 78.3495 39.3616 79.1482 39.375 79.829C39.4134 81.7581 40.6153 83.77 46.2515 82.9086C45.9932 83.8372 45.7058 84.5541 45.374 85.1113C44.4646 84.8477 43.545 84.7662 42.8805 84.7662C40.4811 84.7662 39.1646 86.4713 39.1646 88.1411C39.1646 88.29 39.1645 88.4754 39.2011 88.6235C39.4601 90.1454 41.084 90.9981 42.8923 90.9981C44.4432 90.9981 46.1406 90.3675 47.1378 89.0321C54.3403 93.5154 59.7199 94.8301 60.6247 90.3303C60.7723 89.5963 60.4411 88.249 59.6455 87.6594Z" fill="#FAE7C6"/>
<path d="M69.0186 85.5775C68.9449 85.5775 68.9076 85.5775 68.8341 85.5403C68.6495 85.4285 68.5387 85.0949 68.5387 84.5755C68.5387 83.9814 68.6868 83.1649 68.9813 82.3475C69.4983 80.8634 70.3833 79.5634 71.0849 79.5634H71.1584C71.3791 79.6009 71.4537 79.8606 71.4537 80.2693C71.4537 81.8657 69.978 85.5775 69.0186 85.5775ZM58.0619 85.2064C58.0254 85.2064 57.9881 85.2064 57.9519 85.1691C57.8773 85.1316 57.8409 84.9834 57.8409 84.7604C57.8409 83.4245 59.4639 79.3038 60.6078 79.3038C60.7186 79.3038 60.7924 79.3413 60.8659 79.378C60.9396 79.4528 61.0132 79.5634 61.0132 79.7491C61.0132 81.0858 58.9104 85.2064 58.0619 85.2064ZM71.6745 77.9306H71.4537C70.1252 77.9306 69.2029 79.4895 68.5387 80.6405C69.3137 78.4132 70.9368 74.9608 72.486 74.4782C72.5233 74.4042 72.5603 74.2927 72.5603 74.181C72.5603 73.4019 71.3056 72.4 70.3098 72.4C70.088 72.4 69.8672 72.4367 69.6826 72.5857C68.3606 73.5191 66.6299 78.1798 65.4171 82.2217C64.9699 83.1784 63.7688 85.7632 63.1167 85.7632H63.0794C62.8951 85.7257 62.8213 85.466 62.8213 85.0949C62.8213 83.5727 64.0017 80.0096 65.2929 79.0816C65.1821 78.5614 64.5178 78.0788 63.7436 78.0788C63.1532 78.0788 62.5259 78.3757 62.0098 79.1183C61.6774 78.4132 60.9397 78.0046 60.1654 77.9679H60.0544C57.5458 77.9679 54.9634 82.6447 54.9634 85.9114C54.9634 87.2481 55.4058 88.3241 56.4762 88.7328C56.7342 88.807 56.955 88.881 57.1769 88.881C59.2058 88.881 59.9809 85.0949 60.6816 83.6842C60.3862 84.464 60.1654 85.4285 60.1654 86.3565C60.1654 87.5818 60.6078 88.6588 61.8255 88.8442H62.0836C62.8634 88.8442 63.5108 88.3003 64.0588 87.5046C64.0358 87.6263 64.0167 87.7394 64.0009 87.8414V87.9904C64.0009 88.6213 64.6651 88.9924 65.2921 88.9924C65.7355 88.9924 66.1409 88.807 66.289 88.4356C66.4733 87.9904 66.6941 86.9134 67.0267 85.9854C67.0267 86.0969 66.9894 86.1711 66.9894 86.2826C66.9894 87.0624 67.3956 88.1019 68.576 88.5098C68.7606 88.5838 68.9813 88.6213 69.1656 88.6213C71.4902 88.6213 73.7407 84.2044 73.7407 81.0491C73.7407 79.4152 73.1503 78.116 71.6745 77.9306Z" fill="#FAE7C6"/>
</g>
<defs>
<clipPath id="clip0_408_2818">
<rect width="80" height="100" fill="white"/>
</clipPath>
</defs>
</svg>
