<svg width="180" height="172" viewBox="0 0 180 172" fill="none" xmlns="http://www.w3.org/2000/svg">
<path d="M83.4358 2.00004C83.6654 5.55538 83.6143 9.13667 83.2828 12.6661C83.2318 13.1072 83.2063 13.5484 83.1298 13.9636C83.1043 14.1713 83.0788 14.3789 83.0533 14.5865C83.0278 14.8979 83.1298 14.0934 83.0533 14.5605C83.0278 14.6903 83.0278 14.846 83.0023 14.9758C82.8748 15.8581 82.7219 16.7404 82.5688 17.6228C82.2373 19.3875 81.8038 21.1522 81.2938 22.865C81.0388 23.6695 80.7838 24.474 80.5033 25.2785C80.3503 25.6677 80.2227 26.057 80.0442 26.4463C80.0187 26.5241 79.9167 26.6539 79.9167 26.7577C79.9167 26.4982 80.0697 26.4203 79.9677 26.602C79.8657 26.8096 79.7892 27.0172 79.6872 27.2248C79.0752 28.6002 78.3357 29.9238 77.5196 31.1695C77.3411 31.4549 77.1372 31.7404 76.9332 32.0258C76.8312 32.1815 76.7036 32.3373 76.6016 32.493C76.5506 32.5449 76.4996 32.6227 76.4741 32.6746C76.7291 32.2075 76.5761 32.5449 76.4996 32.6487C76.0406 33.2456 75.5306 33.8424 75.0206 34.4134C74.5106 34.9584 74.0006 35.4774 73.4395 35.9964C73.1845 36.23 72.9041 36.4635 72.6236 36.6971C72.4961 36.8009 72.3686 36.9047 72.2411 37.0085C72.0371 37.1642 72.6235 36.6971 72.3175 36.9566C72.2155 37.0345 72.139 37.0864 72.037 37.1642C71.374 37.6573 70.6854 38.1244 69.9714 38.5397C69.2574 38.9549 68.518 39.2663 67.7785 39.6556C67.804 39.6296 68.2119 39.4739 67.9314 39.5777C67.8294 39.6296 67.7274 39.6556 67.6254 39.7075C67.4214 39.7853 67.2174 39.8632 66.9879 39.941C66.6054 40.0708 66.2229 40.2005 65.8149 40.3043C65.0244 40.5379 64.2083 40.6936 63.3923 40.7974C62.9588 40.8493 62.4488 41.3165 62.2448 41.6798C62.0408 42.0691 61.9643 42.4843 62.0153 42.9254C62.1428 43.8597 62.9333 44.6123 63.9023 44.6123C65.7639 44.5863 67.6254 44.5863 69.4869 44.7161C69.9205 44.742 70.3285 44.7939 70.762 44.8458C70.7875 44.8458 71.2465 44.9237 70.9405 44.8718C70.609 44.8199 71.068 44.8978 71.119 44.8978C71.3485 44.9237 71.578 44.9756 71.8075 45.0275C72.7255 45.2092 73.6181 45.4427 74.4851 45.7282C74.6381 45.7801 74.8166 45.8579 74.9696 45.9098C75.0461 45.9358 75.1481 45.9877 75.2246 46.0137C75.3776 46.0656 75.5306 46.2213 75.1226 45.9618C75.4286 46.1694 75.8111 46.2732 76.1426 46.4548C76.7802 46.7922 77.3922 47.1555 77.9532 47.5707C78.1062 47.6745 78.2592 47.7784 78.4122 47.9081C78.4632 47.96 78.5397 48.0119 78.5907 48.0379C78.8457 48.2195 78.4887 47.96 78.4632 47.9341C78.7182 48.1936 79.0497 48.4272 79.3302 48.6607C79.8912 49.1797 80.4267 49.6988 80.9367 50.2697C81.1662 50.5292 81.3957 50.7887 81.5998 51.0482C81.7018 51.178 81.8038 51.3077 81.9313 51.4635C82.0843 51.6711 81.6508 51.0742 81.8803 51.3856C81.9568 51.4894 82.0077 51.5673 82.0842 51.6711C82.5177 52.268 82.9003 52.8908 83.2828 53.5136C83.6653 54.1624 84.0224 54.8371 84.3539 55.5119C84.5069 55.8492 84.6599 56.1866 84.8129 56.524C84.8384 56.6018 84.8638 56.6797 84.9148 56.7316C84.7108 56.2385 84.8383 56.524 84.8893 56.6537C84.9658 56.8614 85.0424 57.043 85.1189 57.2506C85.7054 58.8077 86.1389 60.3907 86.4704 61.9997C86.5724 62.4669 86.6489 62.908 86.7254 63.3752C86.7509 63.5568 86.7764 63.7644 86.8274 63.9461C86.8529 64.1018 86.8784 64.2316 86.8784 64.3873C86.8784 64.3094 86.8529 64.2316 86.8529 64.1537C86.8529 64.2575 86.8784 64.3354 86.8784 64.4392C86.9804 65.3734 87.0824 66.2817 87.1334 67.216C87.4139 71.498 87.1589 75.8059 86.8784 80.062C86.8274 81.0222 87.6435 81.8526 88.536 81.9823C89.4795 82.1121 90.3464 81.5152 90.627 80.581C92.6415 74.0672 92.8966 67.19 94.4011 60.5724C94.7326 59.0932 95.1151 57.6139 95.6251 56.1607C95.7271 55.8492 95.8547 55.5378 95.9567 55.2524C96.0077 55.0966 96.1096 54.941 96.1606 54.7593C96.1606 54.7853 95.9821 55.2005 96.1096 54.915C96.1351 54.8372 96.1862 54.7333 96.2117 54.6555C96.4922 54.0327 96.7727 53.4358 97.0787 52.8389C97.6907 51.6451 98.4047 50.5033 99.1952 49.4393C99.2462 49.3874 99.2972 49.3095 99.3227 49.2576C99.0677 49.6469 99.1442 49.4911 99.2207 49.3873C99.3227 49.2576 99.4248 49.1278 99.5268 48.9981C99.7308 48.7386 99.9602 48.479 100.19 48.2195C100.623 47.7265 101.082 47.2593 101.541 46.8441C101.822 46.5846 102.077 46.351 102.383 46.1175C102.434 46.0656 102.485 46.0396 102.561 45.9877C102.102 46.351 102.434 46.0915 102.51 46.0137C102.663 45.9099 102.791 45.8061 102.944 45.7023C103.505 45.313 104.091 44.9497 104.703 44.6382C104.856 44.5604 105.035 44.4825 105.188 44.4047C105.264 44.3787 105.315 44.3528 105.392 44.3268C105.749 44.1711 105.009 44.4825 105.341 44.3528C105.672 44.223 106.004 44.0933 106.361 43.9895C106.718 43.8857 107.049 43.7818 107.406 43.704C107.559 43.678 107.738 43.6261 107.891 43.6002C108.044 43.5742 108.758 43.4704 108.095 43.5483C108.605 43.4704 109.089 43.3926 109.447 42.9774C109.727 42.6659 109.906 42.3026 109.982 41.8614C110.11 40.9791 109.548 39.9151 108.605 39.7334C107.865 39.5777 107.126 39.396 106.386 39.1625C106.055 39.0587 105.749 38.9289 105.417 38.8251C105.239 38.7473 105.06 38.6694 104.882 38.6175C105.468 38.8511 104.805 38.5656 104.652 38.5137C103.301 37.8649 102 37.0864 100.802 36.1781C100.751 36.1262 100.674 36.0743 100.623 36.0483C100.368 35.8407 100.725 36.1262 100.751 36.1521C100.623 36.0224 100.445 35.9185 100.292 35.7888C99.9858 35.5293 99.7052 35.2957 99.4247 35.0362C98.8637 34.5172 98.3027 33.9722 97.7927 33.3753C97.2826 32.8044 96.7982 32.2334 96.3137 31.6366C96.2627 31.5587 96.2116 31.4809 96.1351 31.403C96.1606 31.429 96.4157 31.7663 96.2117 31.5068C96.0842 31.3511 95.9821 31.1954 95.8546 31.0397C95.6251 30.7283 95.3957 30.3909 95.1917 30.0795C94.3501 28.8079 93.6106 27.4584 92.9475 26.083C92.7945 25.7456 92.6416 25.4342 92.4886 25.0968C92.4376 25.019 92.4121 24.9151 92.3866 24.8373C92.2591 24.5518 92.4375 24.9411 92.4375 24.9671C92.361 24.7335 92.259 24.5259 92.1825 24.3183C91.902 23.6176 91.647 22.8909 91.392 22.1643C90.3209 18.9723 89.5305 15.6764 88.893 12.3547C88.536 10.5121 88.2045 8.64361 87.924 6.77511C87.7965 5.89276 87.669 5.03637 87.5415 4.15402C87.4905 3.71284 87.4139 3.29762 87.3629 2.85645C87.3374 2.70074 87.2354 1.97409 87.3374 2.62288C87.3119 2.38931 87.2864 2.18171 87.2609 1.94815C87.1844 1.40317 87.0824 0.96198 86.6999 0.572708C86.3684 0.23534 85.8329 -0.0241619 85.3484 0.00178949C84.8639 0.0277409 84.3283 0.183437 83.9968 0.572708C83.6653 0.987931 83.3593 1.50696 83.4358 2.00004C84.3284 8.82526 85.3484 15.7283 87.414 22.294C89.403 28.5483 92.6416 34.5172 97.7162 38.6954C100.598 41.0569 103.913 42.8735 107.559 43.5742C107.738 42.3026 107.891 41.031 108.069 39.7594C106.488 39.967 105.035 40.3822 103.556 41.031C102.255 41.6019 101.057 42.3805 99.9347 43.2888C97.7416 45.0275 95.9311 47.2853 94.5031 49.6988C92.9986 52.2161 91.902 54.9928 91.1625 57.8475C90.27 61.2212 89.76 64.6987 89.2499 68.1502C88.6889 72.043 88.1024 75.9357 86.9294 79.6986C88.1789 79.8803 89.4285 80.036 90.678 80.2177C91.1625 72.536 91.5961 64.4911 89.046 57.0949C86.9294 50.9185 82.7728 45.1313 76.7291 42.5362C72.6745 40.7974 68.2374 40.7455 63.9023 40.7974C64.0808 42.069 64.2338 43.3407 64.4123 44.6123C70.8385 43.704 76.3211 39.4739 80.0697 34.2836C84.2263 28.5224 86.0369 21.282 86.904 14.2751C87.414 10.2007 87.5159 6.10036 87.2354 2.02598C87.1589 1.01388 86.3939 0.0277219 85.3229 0.0796248C84.3538 0.105576 83.3593 0.910077 83.4358 2.00004Z" fill="#231F20"/>
<path d="M12.2847 54.5558C12.716 56.4929 13.0965 58.4558 13.4262 60.4187C13.6038 61.3744 13.7561 62.33 13.8829 63.2856C13.959 63.7764 14.0351 64.2413 14.0858 64.732C14.1112 64.9386 14.1365 65.1711 14.1619 65.3777C14.2126 65.7393 14.1619 65.4035 14.1619 65.3519C14.1872 65.5069 14.2126 65.6618 14.2126 65.8426C14.72 69.7426 15.0243 73.6427 15.1765 77.5685C15.2526 79.2474 15.2527 80.9004 15.1513 82.5792C15.1259 82.9666 15.1004 83.354 15.0497 83.7414C15.0243 83.9481 14.999 84.1547 14.9737 84.3613C14.9483 84.5679 15.0244 84.7229 14.9737 84.3096C14.999 84.4388 14.9229 84.5937 14.9229 84.7229C14.796 85.5235 14.6438 86.2984 14.4155 87.0732C14.3141 87.4606 14.1873 87.8222 14.0604 88.2097C14.0097 88.3646 13.9083 88.5454 13.8829 88.7004C13.9844 88.313 13.9843 88.4938 13.9336 88.5971C13.8829 88.7262 13.8321 88.8295 13.7814 88.9587C13.4262 89.7077 13.0204 90.405 12.5384 91.0766C12.4116 91.2315 12.3101 91.4123 12.1833 91.5673C12.2087 91.5156 12.437 91.2315 12.2341 91.4898C12.1833 91.5673 12.1326 91.6448 12.0565 91.6964C11.8028 92.0322 11.5237 92.368 11.2447 92.7037C10.712 93.3236 10.1286 93.9435 9.54516 94.5375C8.91099 95.1832 8.25137 95.7772 7.56646 96.3713C7.21133 96.6812 6.85624 96.9912 6.47574 97.2753C6.39964 97.3528 6.29817 97.4303 6.22207 97.4819C6.17133 97.5077 5.86693 97.766 6.09523 97.5852C6.3489 97.4044 5.99376 97.6627 5.9684 97.6885C5.86693 97.766 5.74015 97.8435 5.63868 97.9468C4.11666 99.0833 2.54391 100.142 0.945798 101.149C0.260891 101.589 -0.195813 102.518 0.0832233 103.345C0.336892 104.12 1.07258 104.817 1.90969 104.765C3.50781 104.662 5.10592 104.585 6.72941 104.662C7.79482 104.714 8.86023 104.817 9.90027 104.946C10.4837 104.998 11.0417 105.05 11.6252 105.101C11.8027 105.101 11.9803 105.127 12.1579 105.153C12.2086 105.153 12.234 105.153 12.2847 105.179C12.4877 105.204 12.4369 105.204 12.1325 105.153C12.1832 105.179 12.3102 105.179 12.3609 105.179C12.7668 105.256 13.1726 105.334 13.5785 105.463C13.9336 105.566 14.2888 105.695 14.6185 105.824C14.72 105.85 14.7961 105.902 14.8976 105.928C15.1513 106.031 14.4409 105.721 14.8214 105.902C15.0244 106.005 15.202 106.083 15.4049 106.186C16.1152 106.548 16.7747 106.961 17.4089 107.426C17.485 107.477 17.5611 107.555 17.6372 107.606C17.9162 107.813 17.5611 107.555 17.5357 107.529C17.6118 107.658 17.8908 107.813 17.9923 107.916C18.3221 108.201 18.6265 108.485 18.9309 108.769C19.5144 109.337 20.0978 109.957 20.6052 110.577C20.8588 110.887 21.1125 111.197 21.3408 111.507C21.0871 111.145 21.6198 111.868 21.3408 111.507C21.3915 111.584 21.4423 111.636 21.493 111.713C21.6452 111.92 21.7973 112.126 21.9242 112.333C22.4061 113.03 22.8627 113.728 23.294 114.451C24.2325 116.026 25.0951 117.679 25.8814 119.332C26.3127 120.236 26.7439 121.166 27.1498 122.07C27.2512 122.277 27.3274 122.483 27.4288 122.69C27.4796 122.793 27.5303 122.922 27.5811 123.026C27.7079 123.362 27.581 123.052 27.5557 122.974C27.784 123.491 27.9615 124.007 28.1645 124.524C29.8133 128.76 31.0816 133.125 31.9695 137.593C32.1471 138.548 33.1872 139.091 34.0496 138.987C35.0643 138.858 35.597 138.058 35.6985 137.076C36.5863 129.302 34.6584 121.579 35.115 113.779C35.1403 113.159 35.2165 112.54 35.2672 111.946C35.2926 111.791 35.318 111.636 35.318 111.481C35.3433 111.222 35.2418 112.023 35.2926 111.636C35.2926 111.558 35.318 111.507 35.318 111.429C35.3687 111.093 35.4193 110.757 35.4701 110.422C35.6984 109.104 36.0028 107.787 36.3579 106.522C36.5609 105.85 36.7638 105.179 36.9921 104.507C37.0936 104.197 37.1951 103.913 37.3219 103.629C37.3727 103.474 37.4487 103.319 37.4994 103.164C37.6263 102.88 37.4487 103.293 37.4234 103.319C37.4741 103.216 37.4995 103.112 37.5502 103.009C38.0829 101.795 38.6917 100.607 39.4273 99.4965C39.6049 99.2124 39.8079 98.9283 40.0109 98.6442C40.0362 98.5925 40.2644 98.3084 40.0361 98.5925C39.8332 98.8766 40.0616 98.5667 40.1123 98.515C40.2138 98.3859 40.3152 98.2567 40.442 98.1276C40.8733 97.611 41.3553 97.1203 41.8626 96.6812C41.9894 96.5521 42.1417 96.4488 42.2685 96.3455C42.4461 96.1905 41.9133 96.6038 42.1163 96.4746C42.1924 96.423 42.2684 96.3713 42.3445 96.2938C42.6236 96.113 42.8773 95.9322 43.1817 95.7514C43.4608 95.5965 43.7397 95.4415 44.0188 95.3124C44.0695 95.2865 44.3739 95.1574 44.0442 95.2865C43.7398 95.4157 43.9935 95.3124 44.0696 95.2865C44.2471 95.209 44.4246 95.1574 44.6022 95.1057C45.3632 94.8475 46.0481 94.0984 45.9973 93.2461C45.9466 92.368 45.4393 91.6706 44.6022 91.3865C41.3552 90.2759 37.9561 89.811 34.6838 88.752C34.3033 88.6229 33.9228 88.4938 33.5423 88.3388C33.4662 88.313 33.39 88.2872 33.3139 88.2613C33.2632 88.2355 32.9334 88.0547 33.2124 88.2097C33.4915 88.3646 33.1617 88.1838 33.111 88.158C33.0095 88.1064 32.8828 88.0547 32.7813 88.003C32.0456 87.6673 31.3607 87.254 30.7011 86.7891C30.5997 86.7116 30.4982 86.6342 30.3967 86.5825C30.1684 86.4275 30.4475 86.66 30.4983 86.66C30.4222 86.6858 30.0923 86.3242 30.0162 86.2467C29.6864 85.9368 29.3567 85.6269 29.0523 85.2911C28.7986 85.007 28.545 84.6971 28.2913 84.3871C28.1645 84.2322 28.0376 84.0772 27.9108 83.9222C28.2406 84.3096 28.0377 84.0772 27.9616 83.9739C27.8855 83.8705 27.8094 83.7414 27.7079 83.6381C26.7947 82.3725 26.0336 81.0295 25.3487 79.6348C25.1711 79.2732 25.019 78.9374 24.8668 78.5758C24.7907 78.4209 24.7146 78.2659 24.6639 78.0851C24.6131 78.0076 24.5878 77.9043 24.537 77.8268C24.3848 77.4652 24.6892 78.1884 24.537 77.8526C24.2326 77.1036 23.9535 76.3288 23.6745 75.5798C22.5329 72.3771 21.6451 69.0711 20.6558 65.8168C19.286 61.426 17.6879 57.1128 15.6078 53.0319C15.1512 52.128 13.8322 51.7922 12.9951 52.3346C12.0819 52.9286 11.8282 54.0134 12.3101 54.9949C12.8175 55.9763 13.2995 56.9836 13.7561 57.9909C13.959 58.4558 14.1873 58.9207 14.3649 59.3856C14.3395 59.334 14.2126 58.9982 14.3395 59.334C14.3902 59.4373 14.441 59.5664 14.4917 59.6697C14.5932 59.928 14.6946 60.1863 14.796 60.4187C15.5063 62.2267 16.1405 64.0605 16.7239 65.9201C17.7894 69.2519 18.7026 72.6354 19.8188 75.9414C20.8842 79.0924 22.1779 82.2176 24.0297 84.9812C25.019 86.4534 26.1351 87.9514 27.5049 89.0878C28.9762 90.3534 30.5997 91.2574 32.4008 91.9547C36.0029 93.3753 39.9094 93.7885 43.5622 95.0283C43.5622 93.7885 43.5622 92.5488 43.5622 91.2832C38.0322 93.0912 34.8613 98.6958 33.111 103.965C32.1978 106.677 31.6397 109.518 31.3607 112.359C31.0056 116.026 31.2592 119.746 31.5636 123.413C31.9187 127.933 32.35 132.453 31.8427 136.973C33.0856 136.792 34.3287 136.637 35.5716 136.456C34.7599 132.401 33.6183 128.398 32.1978 124.524C30.7519 120.624 29.0523 116.775 26.9976 113.159C25.2472 110.112 23.1418 107.142 20.4529 104.895C18.9817 103.681 17.4596 102.699 15.6839 102.002C14.1111 101.356 12.4623 101.175 10.7881 101.02C9.5705 100.917 8.37831 100.762 7.16069 100.685C5.35964 100.581 3.58391 100.659 1.78286 100.762C2.11263 101.976 2.41698 103.164 2.74675 104.378C5.74005 102.493 8.65727 100.426 11.2701 97.9726C13.8575 95.519 16.2674 92.7037 17.5611 89.3203C18.8041 86.0659 19.007 82.4242 18.9309 78.9374C18.8548 74.9857 18.5503 71.034 18.0937 67.134C17.561 62.5366 16.8 57.9393 15.8107 53.4194C15.5824 52.4379 14.4156 51.7664 13.477 52.0763C12.5892 52.5154 12.0311 53.4969 12.2847 54.5558Z" fill="#231F20"/>
<path d="M112.501 106.52C112.858 107.934 113.138 109.349 113.342 110.815C113.316 110.635 113.291 110.481 113.265 110.301C113.647 113.156 113.698 116.089 113.316 118.944C113.342 118.764 113.367 118.609 113.393 118.429C113.087 120.744 112.501 123.008 111.61 125.143C111.686 124.989 111.737 124.834 111.814 124.68C111.381 125.709 110.897 126.712 110.311 127.664C110.031 128.153 109.7 128.641 109.368 129.104C109.216 129.31 109.063 129.516 108.91 129.722C109.317 129.182 108.986 129.619 108.884 129.747C108.783 129.876 108.681 130.005 108.579 130.108C107.866 130.982 107.051 131.78 106.21 132.526C106.006 132.706 105.777 132.886 105.573 133.066C105.446 133.169 105.013 133.503 105.548 133.091C105.421 133.169 105.319 133.272 105.191 133.374C104.707 133.735 104.198 134.069 103.689 134.403C102.721 134.995 101.753 135.509 100.709 135.947C100.861 135.87 101.014 135.818 101.167 135.741C100.428 136.05 99.6897 136.358 98.9511 136.693C98.4417 136.924 97.9578 137.13 97.5757 137.516C96.7098 138.339 96.8625 139.754 97.754 140.448C98.2124 140.808 98.8238 140.911 99.3587 141.066C100.276 141.349 101.192 141.683 102.084 142.069C101.931 141.992 101.778 141.94 101.625 141.863C104.045 142.918 106.388 144.23 108.477 145.824C108.528 145.876 108.579 145.902 108.63 145.953C108.197 145.619 108.375 145.773 108.477 145.824C108.604 145.927 108.706 146.004 108.833 146.107C109.063 146.287 109.292 146.493 109.496 146.673C109.878 147.033 110.26 147.393 110.616 147.805C110.795 147.985 110.948 148.191 111.126 148.397C111.202 148.5 111.279 148.602 111.355 148.705C111.431 148.808 111.559 148.988 111.202 148.525C111.253 148.602 111.304 148.654 111.355 148.731C111.661 149.143 111.966 149.58 112.221 150.043C112.883 151.098 113.418 152.229 113.928 153.387C113.851 153.233 113.8 153.078 113.724 152.924C115.558 157.348 116.398 162.107 117.213 166.814C117.417 168.075 117.646 169.335 117.875 170.596C117.952 171.033 118.385 171.547 118.741 171.753C119.123 171.959 119.531 172.036 119.964 171.985C120.906 171.856 121.594 171.059 121.62 170.081C121.696 167.946 121.772 165.811 121.849 163.65C121.925 161.593 121.925 159.509 122.205 157.451C122.18 157.631 122.154 157.785 122.129 157.966C122.384 156.191 122.766 154.416 123.224 152.692C123.453 151.843 123.708 150.995 123.963 150.146C124.192 149.451 124.396 148.731 124.676 148.037C124.6 148.191 124.549 148.345 124.472 148.5C124.829 147.676 125.287 146.905 125.822 146.184C125.899 146.082 125.975 145.979 126.051 145.85C126.23 145.619 125.72 146.262 126 145.902C126.179 145.67 126.357 145.464 126.535 145.233C126.866 144.821 127.223 144.435 127.58 144.049C128.344 143.252 129.159 142.48 129.999 141.734C130.203 141.554 130.407 141.4 130.61 141.22C130.712 141.143 130.814 141.066 130.916 140.963C130.967 140.911 131.018 140.86 131.094 140.834C131.018 140.886 130.712 141.143 130.942 140.937C131.349 140.628 131.782 140.32 132.19 140.011C133.03 139.445 133.896 138.905 134.839 138.519C134.686 138.596 134.533 138.648 134.38 138.725C134.457 138.699 134.533 138.673 134.609 138.622C135.068 138.442 135.501 138.185 135.756 137.747C135.959 137.361 136.036 136.95 135.985 136.513C135.857 135.561 135.068 134.841 134.1 134.841C133.667 134.841 133.234 134.815 132.826 134.763C133.005 134.789 133.158 134.815 133.336 134.841C132.495 134.712 131.655 134.481 130.865 134.146C131.018 134.223 131.171 134.275 131.324 134.352C130.84 134.146 130.381 133.915 129.948 133.632C129.719 133.503 129.515 133.349 129.286 133.22C129.184 133.143 129.057 133.066 128.955 132.989C128.904 132.963 128.853 132.911 128.802 132.886C128.777 132.86 128.751 132.834 128.726 132.834C128.547 132.68 128.98 133.04 128.955 133.014C128.089 132.294 127.274 131.522 126.51 130.674C126.331 130.442 126.128 130.236 125.949 130.005C125.873 129.902 125.771 129.773 125.695 129.67C125.491 129.413 125.899 129.928 125.822 129.825C125.771 129.748 125.72 129.696 125.669 129.619C125.287 129.13 124.956 128.616 124.6 128.101C123.886 127.021 123.25 125.889 122.664 124.732C121.976 123.394 121.339 122.005 120.754 120.616C120.83 120.77 120.881 120.925 120.957 121.079C119.251 116.989 117.926 112.719 116.831 108.397C116.576 107.394 116.347 106.417 116.118 105.414C115.889 104.436 114.717 103.767 113.775 104.076C112.807 104.488 112.246 105.465 112.501 106.52C113.036 108.86 113.622 111.201 114.31 113.516C115.099 116.217 116.016 118.918 117.06 121.542C118.181 124.294 119.429 127.021 121.008 129.542C122.409 131.805 124.09 134.017 126.153 135.689C127.147 136.487 128.191 137.233 129.362 137.747C130.661 138.313 131.935 138.673 133.361 138.802C133.642 138.828 133.922 138.828 134.176 138.828C133.998 137.567 133.845 136.307 133.667 135.046C131.578 135.87 129.77 137.156 128.038 138.57C126.306 139.985 124.676 141.58 123.301 143.355C122.613 144.23 121.976 145.104 121.467 146.107C120.881 147.291 120.499 148.577 120.117 149.837C119.2 152.898 118.461 156.011 118.232 159.2C118.105 161.001 118.079 162.827 118.028 164.628C117.977 166.48 117.901 168.306 117.85 170.158C119.098 169.978 120.346 169.824 121.594 169.644C120.677 164.525 119.989 159.329 118.359 154.39C117.519 151.895 116.475 149.4 114.946 147.239C114.182 146.133 113.316 145.104 112.348 144.178C111.228 143.149 109.98 142.223 108.706 141.4C107.305 140.474 105.828 139.651 104.3 138.956C103.434 138.545 102.542 138.185 101.625 137.85C100.887 137.593 100.148 137.387 99.4095 137.156C99.5623 137.233 99.7152 137.284 99.8681 137.361C100.097 137.593 100.301 137.799 100.53 138.03C100.607 138.185 100.658 138.339 100.734 138.493C100.759 138.673 100.785 138.828 100.81 139.008C100.785 139.188 100.759 139.342 100.734 139.522C100.658 139.677 100.607 139.831 100.53 139.985C100.377 140.217 100.174 140.5 99.9444 140.603C99.9954 140.577 100.021 140.551 100.072 140.525C100.199 140.448 100.326 140.397 100.454 140.32C100.81 140.14 101.192 139.985 101.574 139.831C101.422 139.908 101.269 139.96 101.116 140.037C102.16 139.599 103.23 139.162 104.249 138.622C105.42 138.005 106.516 137.284 107.56 136.487C109.776 134.763 111.686 132.731 113.189 130.365C116.093 125.863 117.366 120.41 117.391 115.085C117.391 111.896 116.958 108.68 116.194 105.594C115.94 104.616 114.819 103.922 113.851 104.256C112.832 104.488 112.221 105.465 112.501 106.52Z" fill="#231F20"/>
<path d="M138.512 37.4188C138.716 38.3686 138.895 39.3183 139.048 40.2681C139.124 40.7301 139.201 41.2178 139.277 41.7055C139.302 41.8595 139.43 42.5783 139.328 42.0136C139.379 42.2959 139.404 42.5783 139.43 42.8349C139.659 44.7858 139.838 46.7623 139.94 48.7388C140.143 52.7174 140.118 56.7218 139.838 60.6748C139.761 61.6502 139.685 62.6256 139.608 63.6267C139.557 64.0631 139.532 64.5251 139.481 64.9615C139.455 65.1668 139.43 65.3722 139.404 65.6032C139.404 65.7058 139.379 65.8085 139.379 65.8856C139.353 66.0396 139.379 65.9626 139.404 65.6545C139.404 65.7315 139.379 65.8085 139.379 65.8856C139.15 67.5284 138.793 69.1455 138.36 70.7369C138.13 71.5327 137.875 72.3284 137.595 73.0985C137.442 73.4835 137.315 73.8685 137.162 74.2536C137.136 74.3563 137.085 74.4333 137.06 74.5359C137.213 74.0482 137.136 74.3306 137.085 74.4589C136.983 74.6643 136.907 74.8953 136.805 75.1006C136.117 76.6151 135.327 78.0526 134.384 79.4387C134.129 79.8237 133.849 80.2087 133.569 80.5681C133.492 80.6708 133.339 80.7991 133.645 80.4654C133.569 80.5681 133.467 80.6708 133.39 80.7735C133.237 80.9531 133.11 81.1328 132.957 81.3125C132.371 82.0056 131.759 82.6473 131.097 83.289C130.765 83.597 130.434 83.905 130.077 84.2131C129.899 84.3671 129.695 84.4954 129.542 84.6495C129.873 84.3158 129.746 84.4954 129.619 84.5981C129.517 84.6751 129.415 84.7521 129.287 84.8291C128.548 85.3682 127.758 85.8816 126.943 86.3179C126.229 86.703 125.821 87.704 126.076 88.4998C126.178 88.8078 126.331 89.1158 126.561 89.3468C126.841 89.6549 127.478 89.9629 127.911 89.9116C129.619 89.7062 131.326 89.6035 133.033 89.6549C133.874 89.6805 134.69 89.7319 135.531 89.8089C135.735 89.8345 135.964 89.8602 136.168 89.8859C136.321 89.9116 137.085 90.0142 136.423 89.9116C136.856 89.9886 137.289 90.0399 137.722 90.1169C139.379 90.3992 141.035 90.81 142.641 91.3233C143.456 91.58 144.272 91.8624 145.062 92.1961C145.24 92.2731 145.393 92.3244 145.571 92.4014C145.673 92.4528 145.775 92.4784 145.877 92.5298C145.342 92.3244 145.699 92.4528 145.826 92.5041C146.234 92.6838 146.616 92.8635 147.024 93.0431C148.579 93.7875 150.082 94.609 151.509 95.533C152.223 95.9951 152.911 96.4571 153.573 96.9705C153.752 97.0988 153.93 97.2272 154.109 97.3555C154.185 97.4325 154.287 97.4838 154.363 97.5608C153.956 97.2528 154.134 97.3812 154.236 97.4582C154.618 97.7662 154.975 98.0486 155.332 98.3566C156.606 99.4347 157.829 100.615 158.95 101.848C159.537 102.489 160.097 103.157 160.658 103.85C160.76 104.004 160.887 104.132 160.989 104.286C160.581 103.798 161.066 104.389 161.142 104.517C161.397 104.876 161.652 105.236 161.907 105.595C162.977 107.161 163.945 108.804 164.761 110.498C164.965 110.934 165.169 111.371 165.347 111.781C165.5 112.141 165.168 111.345 165.321 111.73C165.372 111.858 165.423 112.012 165.474 112.141C165.551 112.346 165.627 112.551 165.704 112.757C166.06 113.681 166.366 114.631 166.621 115.58C166.901 116.556 167.997 117.249 168.966 116.915C169.424 116.761 169.883 116.479 170.112 116.042C170.367 115.555 170.393 115.093 170.316 114.554C170.316 114.528 170.24 114.04 170.291 114.348C170.342 114.656 170.265 114.194 170.265 114.169C170.24 113.989 170.214 113.809 170.189 113.63C170.138 113.219 170.087 112.808 170.061 112.397C170.01 111.756 169.959 111.114 169.934 110.472C169.909 109.471 169.934 108.444 169.908 107.443C169.908 106.186 169.832 104.953 169.705 103.696C169.603 102.746 169.475 101.796 169.348 100.846C169.271 100.282 169.195 99.717 169.119 99.1267C169.093 99.024 169.093 98.9213 169.068 98.8186C168.991 98.3309 169.119 99.1266 169.068 98.8186C169.042 98.5363 168.991 98.2796 168.966 97.9972C168.736 96.1747 168.532 94.3266 168.481 92.4784C168.456 91.5287 168.456 90.6046 168.532 89.6549C168.558 89.2185 168.583 88.7564 168.66 88.3201C168.558 88.8591 168.711 88.0634 168.711 87.9607C168.762 87.704 168.787 87.473 168.838 87.2163C168.991 86.4206 169.221 85.6505 169.475 84.9061C169.577 84.5724 169.705 84.2387 169.832 83.905C169.883 83.751 169.934 83.597 170.011 83.4687C170.036 83.366 170.087 83.289 170.112 83.1863C170.291 82.7756 170.036 83.3917 170.112 83.212C170.724 81.8516 171.412 80.5424 172.228 79.3103C172.457 78.9766 172.788 78.6173 172.992 78.2579C172.967 78.2836 172.712 78.6173 172.916 78.3606C172.992 78.2579 173.069 78.1809 173.145 78.0782C173.272 77.9242 173.4 77.7702 173.527 77.6162C174.062 77.0001 174.623 76.4097 175.235 75.845C175.541 75.5627 175.872 75.2803 176.203 74.998C176.458 74.7926 176.127 75.075 176.101 75.075C176.203 75.0236 176.28 74.921 176.381 74.8696C176.56 74.7413 176.738 74.6129 176.891 74.4846C177.579 73.9969 178.293 73.5862 179.057 73.2012C179.771 72.8418 180.179 71.7894 179.924 71.0193C179.643 70.1722 178.955 69.6589 178.089 69.6075C177.197 69.5562 176.305 69.4792 175.413 69.3765C175.209 69.3508 175.005 69.3252 174.801 69.2995C174.7 69.2995 174.598 69.2482 174.496 69.2482C175.005 69.2225 174.674 69.2738 174.521 69.2482C174.062 69.1712 173.604 69.1198 173.171 69.0428C171.438 68.7348 169.73 68.3497 168.074 67.862C167.233 67.6054 166.417 67.3487 165.602 67.0406C165.219 66.8866 164.837 66.7583 164.429 66.6043C164.378 66.5786 163.843 66.3732 163.843 66.3732C163.92 66.3989 163.996 66.4502 164.073 66.4759C163.996 66.4502 163.92 66.3989 163.843 66.3732C163.741 66.3219 163.614 66.2706 163.512 66.2192C161.907 65.5005 160.378 64.6791 158.9 63.7294C158.161 63.2417 157.421 62.7539 156.733 62.2149C156.657 62.1636 156.606 62.1122 156.529 62.0609C156.606 62.1379 156.963 62.3689 156.529 62.0609C156.377 61.9326 156.198 61.8042 156.045 61.6759C155.689 61.3935 155.357 61.0855 155.026 60.7775C154.389 60.1871 153.752 59.571 153.166 58.9293C152.554 58.2619 152.019 57.5432 151.433 56.8758C151.789 57.2865 151.356 56.7731 151.28 56.6448C151.152 56.4651 151.025 56.3111 150.898 56.1314C150.617 55.7464 150.362 55.3613 150.108 54.9763C149.598 54.2062 149.139 53.4105 148.68 52.6148C147.789 51.0233 146.999 49.3805 146.26 47.6864C146.234 47.6094 146.183 47.5323 146.158 47.4553C146.132 47.3783 146.081 47.3013 146.056 47.2243C146.158 47.481 146.183 47.5067 146.107 47.327C146.005 47.096 145.903 46.8393 145.801 46.6082C145.622 46.1462 145.444 45.6842 145.266 45.2222C144.909 44.2724 144.552 43.297 144.221 42.3472C143.533 40.3707 142.896 38.3942 142.259 36.4177C141.953 35.468 140.908 34.7493 139.914 35.083C138.895 35.3653 138.181 36.3921 138.512 37.4188C140.806 44.6318 143.201 52.0757 147.661 58.2619C149.929 61.4192 152.656 64.14 155.867 66.3732C158.9 68.4781 162.289 70.0696 165.78 71.2246C169.756 72.5338 173.909 73.2525 178.089 73.4835C177.758 72.2771 177.452 71.0963 177.121 69.8899C171.336 72.7905 167.309 78.5659 165.551 84.7521C164.481 88.5254 164.531 92.4528 164.965 96.3031C165.092 97.3812 165.22 98.4336 165.372 99.5117C165.398 99.7684 165.449 99.9994 165.474 100.256C165.5 100.359 165.5 100.461 165.525 100.564C165.602 101.052 165.474 100.256 165.525 100.59C165.602 101.077 165.653 101.591 165.729 102.079C165.908 103.593 166.086 105.107 166.111 106.622C166.137 107.777 166.111 108.932 166.137 110.087C166.188 111.91 166.392 113.732 166.647 115.555C167.87 115.221 169.093 114.862 170.342 114.528C168.38 107.546 164.302 101.232 158.95 96.4314C153.599 91.6057 146.973 88.0891 139.94 86.6259C136.015 85.8045 131.938 85.5479 127.962 86.0612C128.293 87.2677 128.599 88.4484 128.931 89.6549C135.2 86.1896 139.43 79.9521 141.647 73.2268C142.794 69.7359 143.303 66.1166 143.584 62.4459C143.915 58.3903 144.017 54.3346 143.864 50.2789C143.686 45.6328 143.201 40.9868 142.259 36.4434C142.055 35.468 140.857 34.8006 139.914 35.1086C138.818 35.391 138.309 36.3664 138.512 37.4188Z" fill="#231F20"/>
</svg>
