<svg width="50" height="100" viewBox="0 0 50 100" fill="none" xmlns="http://www.w3.org/2000/svg">
<path d="M0.5 25C0.5 11.469 11.469 0.5 25 0.5H49.5V99.5H25C11.469 99.5 0.5 88.531 0.5 75V25Z" fill="#9FCFBC" stroke="#9FCFBC"/>
<path fill-rule="evenodd" clip-rule="evenodd" d="M23.6806 41.8379C23.2901 42.2285 23.2901 42.8616 23.6806 43.2522L30.9285 50.5L23.6806 57.7478C23.2901 58.1384 23.2901 58.7715 23.6806 59.1621L24.9181 60.3995C25.3086 60.79 25.9417 60.79 26.3323 60.3995L34.2872 52.4445L35.5247 51.2071C35.9152 50.8166 35.9152 50.1834 35.5247 49.7929L34.2872 48.5555L26.3323 40.6005C25.9417 40.21 25.3086 40.21 24.9181 40.6005L23.6806 41.8379Z" fill="#F7F7F7"/>
<rect x="5.5" y="28.5" width="44" height="44" stroke="#9FCFBC"/>
</svg>
